<?xml version="1.0" encoding="utf-8"?>
<!-- Generator: Adobe Illustrator 19.1.1, SVG Export Plug-In . SVG Version: 6.00 Build 0)  -->
<svg version="1.1" id="Layer_1" xmlns="http://www.w3.org/2000/svg" xmlns:xlink="http://www.w3.org/1999/xlink" x="0px" y="0px"
	 viewBox="0 0 222 61" style="enable-background:new 0 0 222 61;" xml:space="preserve">
<style type="text/css">
	.st0{fill-rule:evenodd;clip-rule:evenodd;fill:#8DAC3F;}
	.st1{fill-rule:evenodd;clip-rule:evenodd;fill:#343434;}
</style>
<path class="st0" d="M30.6,0c5.4,0,10.4,1.4,14.8,3.8c-2.8,1.1-4.4,3.6-5.5,7c-2.8-1.3-6-2.1-9.3-2.1c-12.1,0-21.8,9.8-21.8,21.8
	c0,12,9.8,21.8,21.8,21.8c12.1,0,21.8-9.8,21.8-21.8c0-3-0.6-5.9-1.7-8.5c3.1,0,6.2,0,9.3,0.1c0.8,2.7,1.2,5.5,1.2,8.5
	C61.1,47.3,47.4,61,30.6,61C13.7,61,0,47.3,0,30.5C0,13.7,13.7,0,30.6,0L30.6,0z M63.2,19c4,0,5.5-1.8,6.7-5.6L72,6.2L49.4,6.1
	c-3.9,0-5.5,1.9-6.6,5.6l-2.2,7.1L63.2,19L63.2,19z M34.7,37.6c2.6-8.5,3.2-10.2,5.8-18.7l-7.1,0c-3.8,0-5.9,0.8-7,4.4l-5.9,18.7
	l7.1,0C31.4,42.1,33.6,41.2,34.7,37.6z"/>
<path class="st1" d="M105.8,22H89.9v33h15.2c5.3,0,17.3-0.9,17.3-16.5C122.5,22.4,109,22,105.8,22L105.8,22z M98,27.9h6.3
	c3.3,0,8.6,1.6,8.6,10.8c0,6.8-3,10.6-9.1,10.6l0,0h-5v-1.1l0-0.1V31.1C98.9,29.8,98.7,28.7,98,27.9L98,27.9z M192.6,27.9V22H222
	v3.8c0,1.3-1.2,2-2.4,2h-8.8c0.7,0.8,0.9,1.9,0.9,3.2c0,8,0,15.9,0,23.9h-3.5c-3.6,0-5.4-0.9-5.4-4.4V27.9H192.6L192.6,27.9z M74,22
	h9.5v3.8c0,1.3-1.2,2-2.4,2H74V22L74,22z M74,31v19.7c0,3.5,1.8,4.4,5.4,4.4h4V31H74L74,31z M153.1,22v3.8c0,1.3-1.2,2-2.4,2h-16.8
	c0.7,0.8,0.9,1.9,0.9,3.2v4.3h16.1v5.5h-16.1V48c0,0.8,0.3,1.2,1.4,1.2h16.9V55h-21c-3.8,0-6.2-1.2-6.2-5V22H153.1L153.1,22z
	 M180.1,44.4c-0.4-0.8-0.9-2-1.5-2.9l-10.2-16.6c-1.3-2.1-2.5-2.8-5.1-2.8h-5.7v33h8.9c0-6.4,0-12.9,0-19.3c0-0.9-0.2-2-0.5-3.1
	c0.5,1.3,1.2,2.2,1.5,2.8l9.7,15.9c1.9,3,3.2,3.7,6.5,3.7h5V22h-8.9c0,6.3,0,12.7,0,19C179.9,42.2,180.1,43.5,180.1,44.4z"/>
</svg>
