<svg id="svg" version="1.1" xmlns="http://www.w3.org/2000/svg" xmlns:xlink="http://www.w3.org/1999/xlink" width="400" height="400" viewBox="0, 0, 400,400"><g id="svgg" opacity=".3"><path id="path0" d="M159.219 77.965 C 158.936 78.492,158.800 89.957,158.800 113.141 C 158.800 132.057,158.691 147.819,158.557 148.167 C 158.338 148.738,154.851 148.800,123.204 148.800 C 90.088 148.800,88.085 148.840,87.947 149.500 C 87.866 149.885,87.849 167.435,87.908 188.500 L 88.016 226.800 122.959 226.800 C 150.434 226.800,157.987 226.907,158.301 227.300 C 158.532 227.588,158.720 231.016,158.746 235.400 C 158.771 239.580,158.794 243.232,158.796 243.515 C 158.799 243.905,159.676 244.002,162.420 243.915 L 166.040 243.800 166.056 232.200 C 166.064 225.820,166.055 220.376,166.036 220.102 C 166.008 219.710,158.513 219.583,130.700 219.502 L 95.400 219.400 95.400 187.800 L 95.400 156.200 130.700 156.098 C 150.115 156.042,166.011 155.862,166.026 155.698 C 166.040 155.534,166.137 154.770,166.241 154.000 C 166.346 153.230,166.469 137.630,166.516 119.334 C 166.562 101.038,166.702 85.966,166.826 85.841 C 167.076 85.590,228.811 85.477,229.061 85.727 C 229.178 85.844,229.689 150.025,229.613 155.100 L 229.600 156.000 264.792 156.000 L 299.985 156.000 300.203 156.900 C 300.322 157.395,300.371 171.660,300.310 188.600 L 300.200 219.400 292.534 219.509 L 284.868 219.617 284.403 218.209 C 284.147 217.434,283.805 216.800,283.643 216.800 C 283.480 216.800,282.946 216.086,282.455 215.213 C 281.965 214.340,280.962 212.733,280.227 211.641 C 279.493 210.549,278.196 208.248,277.346 206.528 C 276.496 204.807,275.710 203.309,275.600 203.199 C 275.490 203.088,274.410 201.058,273.200 198.688 C 271.990 196.317,270.600 193.911,270.111 193.340 C 269.623 192.769,269.103 191.919,268.958 191.451 C 268.812 190.983,268.575 190.510,268.433 190.400 C 267.701 189.836,263.561 182.908,262.983 181.279 C 262.616 180.246,262.174 179.040,262.002 178.600 C 261.829 178.160,261.358 176.630,260.955 175.200 C 260.179 172.453,258.258 167.874,256.970 165.703 C 256.126 164.281,254.400 163.855,254.400 165.069 C 254.400 165.436,254.157 166.021,253.859 166.369 C 253.562 166.716,252.658 170.129,251.850 173.954 C 251.042 177.778,250.285 181.063,250.167 181.254 C 249.710 181.993,248.800 181.574,248.800 180.624 C 248.800 180.087,248.650 179.555,248.468 179.442 C 248.285 179.329,247.904 178.202,247.621 176.938 C 247.338 175.674,246.950 174.361,246.759 174.020 C 246.568 173.679,246.033 172.230,245.569 170.800 C 243.773 165.263,242.009 164.255,241.194 168.300 C 240.939 169.565,240.552 170.935,240.334 171.345 C 240.115 171.755,239.865 172.475,239.777 172.945 C 239.689 173.415,239.453 174.160,239.254 174.600 C 238.908 175.361,238.648 176.735,237.552 183.600 C 236.979 187.182,235.420 190.400,234.256 190.400 C 234.039 190.400,232.964 191.242,231.447 192.600 C 231.201 192.820,230.460 193.270,229.800 193.600 C 229.140 193.930,228.272 194.605,227.871 195.100 C 227.470 195.595,226.885 196.000,226.571 196.000 C 226.257 196.000,226.000 196.180,226.000 196.400 C 226.000 196.620,225.730 196.800,225.400 196.800 C 225.070 196.800,224.800 196.980,224.800 197.200 C 224.800 197.420,224.426 197.974,223.969 198.431 C 223.512 198.888,222.223 201.093,221.104 203.331 C 219.041 207.459,217.477 209.600,216.525 209.600 C 216.236 209.600,216.000 209.780,216.000 210.000 C 216.000 210.220,215.550 210.400,215.000 210.400 C 214.450 210.400,214.000 210.580,214.000 210.800 C 214.000 211.020,213.571 211.200,213.046 211.200 C 212.521 211.200,211.576 211.469,210.946 211.798 C 210.316 212.126,209.485 212.396,209.100 212.398 C 208.715 212.399,208.400 212.599,208.400 212.842 C 208.400 213.115,207.800 213.227,206.831 213.134 C 205.907 213.046,205.290 213.153,205.331 213.392 C 205.369 213.617,204.770 213.858,204.000 213.929 C 203.230 213.999,202.429 214.224,202.220 214.429 C 202.011 214.633,201.233 214.800,200.491 214.800 C 199.750 214.800,198.859 215.084,198.512 215.431 C 198.165 215.778,197.559 215.978,197.166 215.875 C 196.773 215.772,196.356 215.939,196.238 216.244 C 196.121 216.550,195.749 216.800,195.413 216.800 C 195.076 216.800,194.800 216.980,194.800 217.200 C 194.800 217.420,194.485 217.610,194.100 217.622 C 193.715 217.634,192.985 218.170,192.478 218.813 L 191.555 219.981 192.658 221.890 C 193.265 222.941,193.876 223.890,194.015 224.000 C 194.856 224.662,196.502 228.288,196.964 230.494 C 198.055 235.710,199.351 238.827,200.844 239.827 C 201.478 240.252,201.998 240.735,201.999 240.900 C 201.999 241.065,202.799 241.200,203.776 241.200 C 204.753 241.200,205.648 241.354,205.764 241.542 C 205.881 241.730,208.771 241.978,212.188 242.093 C 216.329 242.232,218.603 242.470,219.009 242.808 C 219.457 243.179,220.561 243.242,223.169 243.045 C 226.076 242.826,226.831 242.888,227.331 243.389 C 227.668 243.725,228.127 244.000,228.353 244.000 C 229.005 244.000,229.596 246.760,229.593 249.800 C 229.590 253.557,229.222 255.600,228.548 255.600 C 228.246 255.600,228.000 255.838,228.000 256.128 C 228.000 256.715,226.218 258.400,225.597 258.400 C 225.379 258.400,225.200 258.580,225.200 258.800 C 225.200 259.020,225.029 259.200,224.819 259.200 C 224.610 259.200,223.827 259.830,223.079 260.600 C 222.331 261.370,221.512 262.000,221.260 262.000 C 221.007 262.000,220.800 262.180,220.800 262.400 C 220.800 262.620,220.573 262.800,220.296 262.800 C 220.019 262.800,219.307 263.250,218.713 263.800 C 218.120 264.350,217.424 264.800,217.166 264.800 C 216.639 264.800,209.600 271.872,209.600 272.402 C 209.600 272.590,209.363 272.981,209.074 273.271 C 208.330 274.020,205.600 278.344,205.600 278.774 C 205.600 278.972,205.462 279.193,205.292 279.267 C 205.123 279.340,204.193 280.750,203.224 282.400 C 202.256 284.050,201.315 285.460,201.132 285.533 C 200.949 285.607,200.800 286.001,200.800 286.410 C 200.800 286.818,200.643 287.250,200.452 287.368 C 200.260 287.486,199.995 288.127,199.862 288.792 L 199.620 290.000 182.967 290.000 C 168.219 290.000,166.341 289.930,166.548 289.391 C 167.039 288.112,165.383 287.200,162.571 287.200 C 158.917 287.200,158.800 287.373,158.800 292.768 L 158.800 297.192 177.900 297.296 L 197.000 297.400 197.000 306.000 C 197.000 313.547,197.086 314.721,197.700 315.589 C 198.085 316.133,198.400 316.839,198.400 317.157 C 198.400 317.781,200.811 323.269,201.230 323.600 C 201.672 323.949,204.768 331.200,204.478 331.206 C 204.325 331.209,204.392 331.344,204.627 331.506 C 204.862 331.668,205.603 332.970,206.273 334.400 C 209.418 341.107,213.045 340.150,213.764 332.422 C 213.896 331.005,214.138 329.745,214.302 329.622 C 214.466 329.500,214.617 328.680,214.638 327.800 C 214.659 326.920,214.955 325.300,215.295 324.200 C 215.636 323.100,216.466 320.400,217.139 318.200 C 217.812 316.000,218.735 313.120,219.190 311.800 C 220.193 308.890,223.629 302.000,224.078 302.000 C 224.255 302.000,224.400 301.743,224.400 301.429 C 224.400 301.114,224.635 300.619,224.922 300.329 C 225.210 300.038,225.873 299.035,226.396 298.100 C 226.919 297.165,227.465 296.400,227.609 296.400 C 228.314 296.400,228.784 294.279,228.433 292.680 C 227.359 287.786,227.153 286.042,227.113 281.531 C 227.086 278.511,227.267 275.980,227.579 275.000 C 228.222 272.986,229.698 270.000,230.050 270.000 C 230.196 270.000,230.740 269.537,231.258 268.971 C 233.780 266.218,239.417 265.657,241.693 267.933 C 241.950 268.190,242.372 268.400,242.631 268.400 C 243.147 268.400,244.552 271.441,244.988 273.500 C 245.251 274.739,246.090 275.226,246.584 274.425 C 247.105 273.582,249.453 272.800,251.461 272.800 C 252.638 272.800,253.600 272.620,253.600 272.400 C 253.600 272.180,253.793 272.000,254.029 272.000 C 254.573 272.000,255.250 271.320,256.217 269.800 C 256.637 269.140,257.200 268.462,257.467 268.293 C 260.181 266.581,256.902 259.200,253.427 259.200 C 252.668 259.200,251.936 259.020,251.800 258.800 C 251.664 258.580,251.018 258.400,250.364 258.400 C 249.699 258.400,249.078 258.147,248.954 257.825 C 248.833 257.509,248.468 257.353,248.143 257.477 C 247.806 257.606,247.050 257.223,246.385 256.586 C 243.291 253.621,243.358 243.272,246.472 243.213 C 246.887 243.205,247.722 242.129,248.656 240.400 C 249.488 238.860,250.310 237.600,250.484 237.600 C 250.658 237.600,250.800 237.393,250.800 237.140 C 250.800 236.641,252.813 232.327,253.198 232.000 C 253.328 231.890,253.689 231.006,254.002 230.036 C 254.696 227.880,255.788 226.800,257.271 226.800 C 259.586 226.800,260.063 225.838,259.766 221.775 C 259.453 217.493,260.146 215.339,261.680 215.825 C 262.645 216.132,265.200 218.572,265.200 219.187 C 265.200 219.414,265.368 219.600,265.573 219.600 C 265.778 219.600,266.056 219.946,266.190 220.370 C 266.325 220.793,267.147 221.873,268.017 222.770 C 268.888 223.667,269.600 224.558,269.600 224.751 C 269.600 224.944,270.320 225.866,271.200 226.800 C 272.080 227.734,272.800 228.619,272.800 228.765 C 272.800 228.912,273.520 229.828,274.400 230.800 C 275.280 231.772,276.000 232.690,276.000 232.840 C 276.000 232.989,276.626 233.807,277.391 234.656 C 278.156 235.505,278.786 236.322,278.791 236.471 C 278.796 236.621,279.038 236.981,279.329 237.272 C 279.844 237.786,285.067 248.191,286.020 250.600 C 286.511 251.842,286.721 252.545,287.808 256.600 C 288.162 257.920,288.634 259.630,288.856 260.400 C 289.276 261.856,289.732 263.860,290.380 267.100 C 291.185 271.128,291.284 280.387,290.598 287.400 C 289.530 298.315,288.675 303.975,288.032 304.388 C 287.851 304.505,287.614 305.230,287.505 306.000 C 287.396 306.770,286.635 309.200,285.814 311.400 C 284.993 313.600,284.228 315.805,284.114 316.300 C 284.000 316.795,283.748 317.200,283.553 317.200 C 283.359 317.200,283.200 317.583,283.200 318.050 C 283.200 318.999,281.030 324.617,278.894 329.200 C 277.534 332.117,276.721 336.000,277.469 336.000 C 278.079 336.000,278.800 335.090,278.800 334.320 C 278.800 333.924,278.980 333.600,279.200 333.600 C 279.420 333.600,279.600 333.328,279.600 332.995 C 279.600 332.662,279.772 332.077,279.982 331.695 C 281.576 328.800,284.310 322.166,285.214 319.000 C 285.403 318.340,286.467 315.139,287.578 311.887 C 288.690 308.635,289.600 305.596,289.600 305.134 C 289.600 304.671,289.769 303.642,289.976 302.846 C 291.371 297.479,291.600 296.409,291.600 295.247 C 291.600 294.532,291.765 293.638,291.967 293.261 C 292.170 292.883,292.465 289.390,292.624 285.498 C 292.783 281.607,293.023 278.491,293.157 278.574 C 293.290 278.658,293.338 276.628,293.263 274.063 C 293.108 268.802,293.831 260.582,294.653 258.250 C 294.954 257.397,295.200 256.128,295.200 255.430 C 295.200 254.731,295.352 253.989,295.538 253.780 C 296.097 253.152,296.913 247.871,296.712 246.178 C 296.332 242.976,295.152 238.159,294.414 236.794 C 293.996 236.020,293.351 234.490,292.980 233.394 C 292.609 232.297,292.192 231.310,292.053 231.200 C 291.914 231.090,291.462 230.335,291.049 229.522 C 289.694 226.855,289.767 226.829,299.084 226.708 L 307.400 226.600 307.502 187.700 L 307.604 148.800 272.443 148.800 L 237.282 148.800 237.131 113.900 C 237.016 87.167,236.865 78.794,236.486 78.119 L 235.992 77.237 197.814 77.210 C 160.322 77.184,159.630 77.197,159.219 77.965 M253.470 238.663 C 253.325 238.808,253.398 239.156,253.631 239.438 C 253.930 239.798,253.929 240.185,253.628 240.748 C 253.013 241.896,253.072 242.000,254.336 242.000 C 255.624 242.000,256.496 240.655,256.126 239.240 C 255.911 238.416,254.109 238.025,253.470 238.663 M254.867 314.565 C 254.596 315.316,254.320 318.096,254.254 320.744 C 254.186 323.456,253.943 325.787,253.696 326.084 C 253.236 326.639,253.273 338.207,253.737 338.670 C 253.871 338.804,254.224 338.712,254.521 338.466 C 255.440 337.703,257.301 314.767,256.466 314.489 C 256.210 314.403,256.000 314.078,256.000 313.767 C 256.000 312.734,255.368 313.179,254.867 314.565 M270.355 318.763 C 269.416 319.691,268.800 321.012,268.800 322.097 C 268.800 322.620,268.539 323.396,268.220 323.824 C 267.846 324.323,267.717 325.102,267.856 326.007 C 268.008 326.992,267.783 328.070,267.108 329.607 C 264.518 335.493,264.895 341.119,267.664 337.926 C 268.529 336.929,268.558 336.808,269.223 331.400 C 269.506 329.098,270.104 326.512,270.632 325.309 C 272.397 321.282,272.213 316.928,270.355 318.763 " stroke="none" fill="#06a1e1" fill-rule="evenodd"></path><path id="path1" d="M235.400 267.448 C 228.760 269.051,225.865 278.643,228.472 290.400 C 228.838 292.050,229.249 294.201,229.386 295.180 C 229.523 296.159,229.819 297.182,230.044 297.453 C 230.269 297.724,230.486 298.587,230.527 299.371 C 230.567 300.155,230.727 300.797,230.882 300.798 C 231.037 300.799,231.280 301.418,231.421 302.172 C 231.563 302.927,231.929 303.641,232.235 303.758 C 232.540 303.875,232.748 303.843,232.697 303.686 C 232.342 302.606,239.536 296.066,240.454 296.633 C 240.718 296.797,240.817 296.752,240.681 296.530 C 240.424 296.115,242.265 295.198,245.100 294.327 C 246.035 294.040,246.800 293.686,246.800 293.540 C 246.800 293.394,247.835 292.959,249.100 292.574 C 250.365 292.190,251.571 291.723,251.780 291.537 C 251.989 291.352,252.484 291.200,252.880 291.200 C 253.276 291.200,253.604 291.065,253.609 290.900 C 253.614 290.735,254.398 290.076,255.352 289.436 C 256.306 288.796,257.411 287.671,257.806 286.936 C 258.202 286.201,258.688 285.600,258.887 285.600 C 259.085 285.600,259.138 285.424,259.005 285.209 C 258.873 284.994,259.034 283.907,259.365 282.795 C 259.991 280.686,259.266 276.922,257.895 275.165 C 256.049 272.799,250.307 272.634,247.138 274.856 C 245.258 276.174,244.402 275.677,244.399 273.267 C 244.393 269.630,239.492 266.460,235.400 267.448 " stroke="none" fill="#df2027" fill-rule="evenodd"></path><path id="path2" d="M158.100 77.064 C 157.705 77.224,157.600 84.675,157.600 112.433 L 157.600 147.600 122.400 147.600 C 99.200 147.600,87.200 147.736,87.200 148.000 C 87.200 148.264,99.335 148.400,122.804 148.400 L 158.408 148.400 158.400 113.300 C 158.395 93.995,158.393 77.975,158.396 77.700 C 158.399 77.303,166.549 77.200,197.800 77.200 L 237.200 77.200 237.200 112.800 L 237.200 148.400 272.824 148.400 C 296.471 148.400,308.364 148.266,308.200 148.000 C 308.038 147.738,295.797 147.600,272.779 147.600 L 237.604 147.600 237.502 112.300 L 237.400 77.000 198.000 76.931 C 176.330 76.892,158.375 76.952,158.100 77.064 M167.705 85.887 C 168.314 85.979,169.214 85.977,169.705 85.882 C 170.197 85.787,169.700 85.711,168.600 85.714 C 167.500 85.717,167.097 85.795,167.705 85.887 M175.519 85.898 C 177.344 85.972,180.224 85.972,181.919 85.897 C 183.614 85.822,182.120 85.761,178.600 85.762 C 175.080 85.762,173.694 85.824,175.519 85.898 M190.522 85.899 C 192.899 85.970,196.679 85.969,198.922 85.898 C 201.165 85.827,199.220 85.769,194.600 85.769 C 189.980 85.770,188.145 85.828,190.522 85.899 M208.522 85.899 C 210.899 85.970,214.679 85.969,216.922 85.898 C 219.165 85.827,217.220 85.769,212.600 85.769 C 207.980 85.770,206.145 85.828,208.522 85.899 M222.900 85.891 C 223.725 85.978,225.075 85.978,225.900 85.891 C 226.725 85.805,226.050 85.734,224.400 85.734 C 222.750 85.734,222.075 85.805,222.900 85.891 M228.893 129.600 C 228.893 130.370,228.975 130.685,229.076 130.300 C 229.176 129.915,229.176 129.285,229.076 128.900 C 228.975 128.515,228.893 128.830,228.893 129.600 M228.934 134.800 C 228.934 136.450,229.005 137.125,229.091 136.300 C 229.178 135.475,229.178 134.125,229.091 133.300 C 229.005 132.475,228.934 133.150,228.934 134.800 M228.987 148.600 L 229.000 157.000 264.100 157.102 L 299.200 157.204 299.200 187.802 L 299.200 218.400 292.300 218.399 L 285.400 218.397 284.214 216.199 C 283.562 214.989,282.916 214.000,282.778 214.000 C 282.641 214.000,282.313 213.527,282.049 212.948 C 281.786 212.370,281.467 211.999,281.341 212.125 C 281.216 212.251,282.077 213.891,283.256 215.769 L 285.400 219.184 292.700 219.192 L 300.000 219.200 300.000 187.790 L 300.000 156.379 265.500 156.400 C 246.525 156.412,230.599 156.417,230.108 156.411 C 229.220 156.400,229.216 156.371,229.095 148.300 L 228.974 140.200 228.987 148.600 M95.600 187.827 L 95.600 219.200 131.000 219.200 C 154.333 219.200,166.400 219.064,166.400 218.800 C 166.400 218.536,154.400 218.400,131.200 218.400 L 96.000 218.400 96.000 187.800 L 96.000 157.200 106.900 157.142 C 112.895 157.110,128.870 156.963,142.400 156.815 L 167.000 156.545 131.300 156.500 L 95.600 156.454 95.600 187.827 M253.823 164.089 C 253.480 164.578,253.203 165.253,253.207 165.589 C 253.210 165.925,253.588 165.615,254.046 164.900 C 255.332 162.893,256.255 163.181,257.522 165.987 C 258.578 168.324,259.200 168.997,259.200 167.800 C 259.200 167.470,259.042 167.200,258.849 167.200 C 258.655 167.200,258.266 166.615,257.983 165.900 C 256.893 163.147,255.046 162.343,253.823 164.089 M241.096 165.500 C 240.314 166.372,239.663 169.455,240.351 169.030 C 240.605 168.873,240.723 168.599,240.613 168.421 C 240.350 167.995,241.552 165.600,242.029 165.600 C 242.233 165.600,242.400 165.420,242.400 165.200 C 242.400 164.585,241.792 164.724,241.096 165.500 M244.678 167.577 C 244.796 168.030,245.022 168.400,245.180 168.400 C 245.338 168.400,245.479 168.625,245.494 168.900 C 245.538 169.716,247.140 173.854,247.159 173.200 C 247.189 172.149,245.368 167.056,244.906 166.902 C 244.636 166.812,244.547 167.075,244.678 167.577 M252.649 167.415 C 252.512 167.773,252.415 168.366,252.434 168.733 C 252.453 169.100,252.627 168.869,252.821 168.220 C 253.198 166.958,253.065 166.333,252.649 167.415 M239.253 172.000 C 238.962 173.430,238.472 175.204,238.164 175.942 C 237.857 176.681,237.721 177.473,237.863 177.702 C 238.179 178.213,240.041 171.319,239.890 170.200 C 239.831 169.760,239.544 170.570,239.253 172.000 M252.116 170.400 C 252.001 170.840,251.748 171.200,251.553 171.200 C 251.109 171.200,251.085 173.082,251.526 173.354 C 251.705 173.465,252.033 172.665,252.256 171.578 C 252.648 169.666,252.541 168.773,252.116 170.400 M259.510 170.100 C 259.735 170.375,260.301 171.770,260.769 173.200 C 261.431 175.225,261.570 175.446,261.397 174.200 C 261.128 172.261,260.025 169.600,259.490 169.600 C 259.250 169.600,259.258 169.790,259.510 170.100 M250.407 175.766 C 250.150 177.005,250.029 178.239,250.138 178.509 C 250.247 178.779,250.351 178.505,250.368 177.900 C 250.386 177.295,250.599 176.800,250.843 176.800 C 251.087 176.800,251.174 176.509,251.036 176.149 C 250.899 175.791,250.998 175.244,251.256 174.932 C 251.588 174.532,251.601 174.241,251.300 173.940 C 250.999 173.639,250.738 174.174,250.407 175.766 M247.206 174.174 C 247.191 175.084,248.540 179.200,248.853 179.200 C 249.428 179.200,249.243 177.734,248.600 177.200 C 248.270 176.926,247.997 176.319,247.994 175.851 C 247.988 175.038,247.219 173.400,247.206 174.174 M262.205 178.300 C 262.365 178.685,262.504 179.188,262.514 179.418 C 262.538 179.934,263.600 180.969,263.600 180.475 C 263.600 179.644,262.689 177.600,262.318 177.600 C 262.090 177.600,262.040 177.904,262.205 178.300 M237.308 179.572 C 237.340 179.997,237.509 180.256,237.683 180.149 C 238.127 179.875,238.080 178.800,237.625 178.800 C 237.419 178.800,237.276 179.148,237.308 179.572 M249.200 180.600 C 249.200 181.150,249.380 181.600,249.600 181.600 C 249.820 181.600,250.000 181.150,250.000 180.600 C 250.000 180.050,249.820 179.600,249.600 179.600 C 249.380 179.600,249.200 180.050,249.200 180.600 M236.687 182.980 C 236.435 185.421,235.140 188.653,234.097 189.446 C 233.502 189.897,233.492 189.976,234.026 189.987 C 234.802 190.003,236.237 187.510,236.611 185.496 C 236.765 184.668,237.050 183.893,237.245 183.772 C 237.701 183.490,237.709 181.314,237.255 181.034 C 237.065 180.917,236.809 181.792,236.687 182.980 M263.840 182.000 C 263.971 182.550,264.871 184.198,265.839 185.662 C 266.808 187.126,267.600 188.433,267.600 188.567 C 267.600 189.047,270.901 193.632,271.102 193.431 C 271.337 193.197,270.379 191.636,269.399 190.656 C 269.038 190.295,268.849 190.000,268.978 190.000 C 269.197 190.000,267.336 187.056,265.710 184.828 C 265.319 184.294,264.685 183.214,264.301 182.428 C 263.831 181.468,263.680 181.328,263.840 182.000 M229.155 192.909 C 228.630 193.408,227.688 194.078,227.063 194.396 C 226.437 194.715,226.108 195.036,226.332 195.111 C 226.798 195.266,230.782 192.755,230.793 192.300 C 230.806 191.739,230.112 191.997,229.155 192.909 M272.221 195.900 C 272.820 196.945,273.933 199.060,274.695 200.600 C 276.269 203.783,276.302 203.831,276.672 203.462 C 276.821 203.312,276.580 202.697,276.137 202.095 C 275.693 201.493,274.814 199.830,274.184 198.400 C 272.932 195.560,271.986 194.032,271.466 194.013 C 271.282 194.006,271.622 194.855,272.221 195.900 M224.800 196.200 C 224.800 196.530,224.575 196.801,224.300 196.803 C 223.548 196.807,219.701 203.035,220.165 203.498 C 220.467 203.800,220.459 203.813,221.756 201.104 C 222.360 199.841,223.608 198.088,224.528 197.208 C 225.738 196.051,226.007 195.607,225.500 195.604 C 225.115 195.602,224.800 195.870,224.800 196.200 M218.881 205.808 C 218.349 206.904,217.569 207.807,216.901 208.100 C 216.296 208.366,215.710 208.691,215.600 208.821 C 215.490 208.952,215.085 209.175,214.700 209.317 C 214.315 209.459,214.000 209.755,214.000 209.975 C 214.000 210.364,215.199 210.098,215.600 209.620 C 215.710 209.489,216.299 209.064,216.908 208.676 C 218.001 207.981,220.400 205.001,220.400 204.340 C 220.400 203.470,219.678 204.167,218.881 205.808 M277.328 205.572 C 277.801 206.437,278.244 207.089,278.312 207.022 C 278.518 206.815,277.072 204.000,276.759 204.000 C 276.598 204.000,276.854 204.708,277.328 205.572 M279.477 209.631 C 280.555 211.467,281.345 212.034,280.790 210.573 C 280.275 209.220,279.648 208.400,279.128 208.400 C 278.923 208.400,279.080 208.954,279.477 209.631 M211.614 210.583 C 211.199 211.084,210.346 211.336,207.296 211.863 C 206.579 211.987,205.889 212.256,205.763 212.460 C 205.495 212.893,206.610 212.668,210.700 211.463 C 212.295 210.994,213.600 210.511,213.600 210.390 C 213.600 209.927,212.032 210.079,211.614 210.583 M202.315 213.342 C 202.017 213.640,201.239 213.988,200.587 214.114 C 198.554 214.509,196.573 215.116,197.176 215.159 C 198.195 215.232,205.200 213.452,205.200 213.120 C 205.200 212.585,202.895 212.763,202.315 213.342 M193.699 216.700 C 193.014 217.305,192.082 218.113,191.627 218.496 C 191.172 218.879,190.800 219.570,190.800 220.033 C 190.800 220.747,193.823 225.600,194.268 225.600 C 194.562 225.600,193.107 223.067,192.342 222.246 C 190.439 220.202,190.797 219.398,194.778 216.773 C 196.074 215.918,196.338 215.600,195.750 215.600 C 195.307 215.600,194.384 216.095,193.699 216.700 M260.524 216.900 C 260.346 217.175,260.244 219.327,260.298 221.681 C 260.382 225.395,260.303 226.017,259.698 226.369 C 259.060 226.741,259.058 226.777,259.673 226.788 C 260.594 226.804,260.899 225.600,260.771 222.459 C 260.523 216.391,261.123 215.338,263.200 218.200 C 263.750 218.958,264.432 219.583,264.716 219.589 C 265.000 219.595,264.566 218.880,263.752 218.000 C 262.252 216.379,261.112 215.991,260.524 216.900 M265.874 221.543 C 266.493 222.438,267.138 223.176,267.306 223.185 C 267.767 223.208,265.819 220.273,265.245 220.082 C 264.972 219.991,265.254 220.648,265.874 221.543 M268.051 224.298 C 269.013 225.522,269.633 226.100,269.803 225.930 C 270.017 225.717,268.201 223.600,267.804 223.600 C 267.638 223.600,267.749 223.914,268.051 224.298 M194.400 226.192 C 194.400 226.809,195.746 229.600,196.043 229.600 C 196.552 229.600,196.499 229.362,195.592 227.584 C 194.875 226.179,194.400 225.624,194.400 226.192 M270.272 227.000 C 270.622 227.976,272.295 229.838,272.573 229.561 C 272.683 229.450,272.146 228.649,271.379 227.780 C 270.580 226.874,270.108 226.541,270.272 227.000 M257.028 227.090 C 255.630 227.446,252.502 232.507,252.915 233.745 C 252.992 233.976,253.481 233.138,254.001 231.883 C 254.521 230.627,255.082 229.600,255.247 229.600 C 255.411 229.600,255.660 229.240,255.800 228.800 C 255.940 228.360,256.402 228.000,256.827 228.000 C 257.252 228.000,257.600 227.833,257.600 227.629 C 257.600 227.425,257.915 227.176,258.300 227.076 C 258.752 226.958,258.788 226.893,258.400 226.893 C 258.070 226.893,257.453 226.981,257.028 227.090 M87.200 227.600 C 87.200 227.864,99.200 228.000,122.400 228.000 L 157.600 228.000 157.600 236.000 C 157.600 241.067,157.747 244.000,158.000 244.000 C 158.254 244.000,158.400 240.933,158.400 235.600 L 158.400 227.200 122.800 227.200 C 99.333 227.200,87.200 227.336,87.200 227.600 M290.400 227.600 C 290.400 227.855,293.667 228.000,299.400 228.000 C 305.133 228.000,308.400 227.855,308.400 227.600 C 308.400 227.345,305.133 227.200,299.400 227.200 C 293.667 227.200,290.400 227.345,290.400 227.600 M291.218 228.451 C 291.180 228.980,292.457 231.676,292.652 231.481 C 292.765 231.368,292.493 230.584,292.047 229.738 C 291.600 228.892,291.227 228.313,291.218 228.451 M112.800 230.400 C 112.800 230.620,113.070 230.800,113.400 230.800 C 113.730 230.800,114.000 230.620,114.000 230.400 C 114.000 230.180,113.730 230.000,113.400 230.000 C 113.070 230.000,112.800 230.180,112.800 230.400 M273.464 231.097 C 273.869 231.811,274.335 232.396,274.500 232.397 C 275.090 232.402,274.783 231.724,273.764 230.770 L 272.727 229.800 273.464 231.097 M196.195 230.869 C 196.072 231.190,196.256 231.981,196.603 232.626 L 197.236 233.800 196.965 232.200 C 196.648 230.328,196.500 230.073,196.195 230.869 M292.800 232.188 C 292.800 232.291,293.340 233.439,294.000 234.738 C 294.660 236.036,295.200 237.332,295.200 237.616 C 295.200 237.901,295.319 238.014,295.464 237.869 C 295.808 237.526,293.643 232.000,293.165 232.000 C 292.964 232.000,292.800 232.085,292.800 232.188 M275.055 233.400 C 275.182 233.730,275.558 234.000,275.892 234.000 C 276.385 234.000,276.405 233.888,276.000 233.400 C 275.726 233.070,275.350 232.800,275.164 232.800 C 274.977 232.800,274.929 233.070,275.055 233.400 M197.232 234.800 C 197.230 235.350,197.486 236.250,197.800 236.800 C 198.539 238.092,198.544 237.433,197.812 235.400 C 197.355 234.132,197.234 234.007,197.232 234.800 M252.200 234.800 C 252.336 235.020,252.283 235.200,252.083 235.200 C 251.883 235.200,251.160 236.466,250.477 238.013 C 249.793 239.560,249.392 240.728,249.586 240.609 C 249.779 240.489,250.246 239.584,250.623 238.596 C 251.000 237.608,251.494 236.800,251.721 236.800 C 251.948 236.800,252.022 236.689,251.886 236.552 C 251.750 236.416,251.900 236.043,252.219 235.724 C 252.901 235.042,252.977 234.400,252.376 234.400 C 252.143 234.400,252.064 234.580,252.200 234.800 M276.414 234.639 C 276.397 235.172,277.932 237.001,278.185 236.748 C 278.284 236.650,277.929 236.036,277.397 235.384 C 276.864 234.733,276.422 234.397,276.414 234.639 M252.673 237.755 C 252.523 238.144,252.690 238.249,253.230 238.108 C 254.116 237.876,254.274 237.200,253.443 237.200 C 253.136 237.200,252.790 237.450,252.673 237.755 M254.800 237.600 C 254.800 237.820,255.060 238.000,255.377 238.000 C 255.695 238.000,256.235 238.400,256.577 238.889 C 256.982 239.467,257.196 239.572,257.187 239.189 C 257.159 237.864,254.800 236.294,254.800 237.600 M198.400 238.104 C 198.400 238.845,199.400 240.400,199.877 240.400 C 200.178 240.400,200.522 240.652,200.640 240.961 C 201.087 242.124,205.214 242.809,212.800 242.980 L 218.600 243.110 214.000 242.745 C 211.470 242.544,208.738 242.388,207.928 242.397 C 207.119 242.407,206.343 242.232,206.205 242.008 C 206.066 241.783,205.355 241.600,204.625 241.600 C 202.713 241.600,200.727 240.654,199.482 239.152 C 198.887 238.433,198.400 237.962,198.400 238.104 M278.800 238.367 C 278.800 238.568,278.940 238.793,279.112 238.867 C 279.618 239.083,284.694 249.647,285.183 251.500 C 285.429 252.435,285.823 253.200,286.059 253.200 C 286.511 253.200,286.170 251.177,285.655 250.804 C 285.500 250.692,284.867 249.290,284.247 247.689 C 283.628 246.088,282.868 244.526,282.560 244.217 C 282.252 243.909,282.000 243.543,282.000 243.403 C 282.000 242.790,279.481 238.000,279.158 238.000 C 278.961 238.000,278.800 238.165,278.800 238.367 M252.533 240.061 C 252.533 241.349,252.636 241.421,253.396 240.661 C 253.848 240.209,253.822 240.025,253.234 239.522 C 252.590 238.970,252.533 239.014,252.533 240.061 M296.000 240.733 C 296.000 241.210,296.164 241.600,296.365 241.600 C 296.771 241.600,296.711 240.577,296.278 240.145 C 296.125 239.992,296.000 240.257,296.000 240.733 M256.312 241.672 C 255.516 242.668,253.330 242.850,252.771 241.967 C 252.574 241.655,252.409 241.589,252.406 241.820 C 252.395 242.557,253.327 243.200,254.405 243.200 C 255.437 243.200,257.200 241.929,257.200 241.184 C 257.200 240.639,257.088 240.701,256.312 241.672 M247.953 242.342 C 247.545 243.061,246.854 243.569,246.075 243.725 C 244.501 244.040,243.749 245.331,244.359 246.669 C 244.601 247.202,244.800 248.079,244.800 248.619 C 244.800 249.158,244.980 249.600,245.200 249.600 C 245.420 249.600,245.600 249.060,245.600 248.400 C 245.600 247.740,245.409 247.200,245.176 247.200 C 244.943 247.200,244.864 247.020,245.000 246.800 C 245.136 246.580,245.057 246.400,244.824 246.400 C 244.591 246.400,244.400 246.158,244.400 245.862 C 244.400 245.214,245.670 244.000,246.348 244.000 C 247.090 244.000,249.200 242.317,249.200 241.725 C 249.200 240.857,248.640 241.134,247.953 242.342 M296.400 242.976 C 296.400 243.513,296.567 244.056,296.770 244.181 C 297.209 244.453,297.247 249.710,296.812 250.000 C 296.646 250.110,296.393 251.100,296.248 252.200 C 296.000 254.085,296.018 254.143,296.566 253.200 C 297.352 251.849,297.754 247.772,297.415 244.600 C 297.149 242.121,296.400 240.922,296.400 242.976 M224.509 243.726 C 227.277 244.148,227.703 244.331,228.406 245.400 C 228.840 246.060,229.196 246.385,229.197 246.122 C 229.206 244.632,227.419 243.634,224.400 243.442 L 221.400 243.251 224.509 243.726 M157.800 244.800 C 157.940 245.027,159.937 245.200,162.424 245.200 C 165.075 245.200,166.800 245.042,166.800 244.800 C 166.800 244.556,164.992 244.400,162.176 244.400 C 159.196 244.400,157.641 244.542,157.800 244.800 M244.412 251.113 C 244.388 253.732,247.702 258.252,248.592 256.814 C 248.713 256.618,248.405 256.399,247.907 256.329 C 247.305 256.243,246.754 255.666,246.257 254.600 C 245.846 253.720,245.370 252.946,245.198 252.881 C 245.026 252.815,244.973 252.425,245.081 252.013 C 245.188 251.602,245.085 250.936,244.850 250.533 C 244.486 249.906,244.423 249.990,244.412 251.113 M228.112 254.900 C 227.655 255.395,226.445 256.520,225.425 257.400 C 224.404 258.280,223.319 259.225,223.013 259.500 C 222.707 259.775,222.347 260.000,222.212 260.000 C 222.077 260.000,221.580 260.360,221.108 260.800 C 220.636 261.240,220.032 261.600,219.767 261.600 C 219.502 261.600,219.182 261.870,219.055 262.200 C 218.929 262.530,218.549 262.800,218.213 262.800 C 217.876 262.800,217.600 262.980,217.600 263.200 C 217.600 263.420,217.393 263.600,217.140 263.600 C 216.888 263.600,216.069 264.230,215.321 265.000 C 214.573 265.770,213.872 266.400,213.763 266.400 C 213.400 266.400,211.512 268.445,211.700 268.634 C 211.802 268.735,212.766 267.989,213.843 266.975 C 214.919 265.962,216.778 264.491,217.974 263.707 C 223.021 260.396,227.971 256.295,228.845 254.700 C 229.365 253.751,229.111 253.820,228.112 254.900 M295.078 257.900 C 294.034 263.454,293.625 267.680,293.986 269.200 C 294.258 270.347,294.327 270.022,294.367 267.400 C 294.394 265.640,294.681 262.760,295.005 261.000 C 295.866 256.320,296.133 254.400,295.922 254.400 C 295.820 254.400,295.440 255.975,295.078 257.900 M286.806 255.833 C 286.809 256.255,286.995 256.870,287.218 257.200 C 287.515 257.638,287.552 257.476,287.356 256.600 C 287.027 255.129,286.798 254.810,286.806 255.833 M249.200 257.348 C 249.200 257.737,252.012 258.800,253.041 258.800 C 255.365 258.800,257.110 259.972,257.850 262.032 C 258.538 263.945,259.200 264.616,259.200 263.400 C 259.200 263.070,259.065 262.799,258.900 262.799 C 258.735 262.798,258.267 261.988,257.860 260.999 C 257.364 259.792,256.880 259.200,256.389 259.200 C 255.986 259.200,255.409 258.952,255.107 258.649 C 254.804 258.347,253.846 258.001,252.978 257.882 C 252.110 257.762,250.905 257.539,250.300 257.386 C 249.695 257.232,249.200 257.215,249.200 257.348 M287.628 258.833 C 287.644 259.365,287.819 260.160,288.019 260.600 C 288.271 261.158,288.307 260.915,288.138 259.800 C 287.855 257.943,287.587 257.436,287.628 258.833 M288.412 262.580 C 288.403 263.441,288.520 263.640,288.841 263.319 C 289.158 263.002,289.161 262.668,288.854 262.139 C 288.477 261.491,288.423 261.546,288.412 262.580 M258.400 266.656 C 258.400 267.016,257.862 268.186,257.204 269.256 C 256.546 270.325,256.141 271.194,256.304 271.187 C 256.721 271.170,257.830 269.572,258.169 268.500 C 258.326 268.005,258.622 267.600,258.827 267.600 C 259.032 267.600,259.200 267.240,259.200 266.800 C 259.200 266.360,259.020 266.000,258.800 266.000 C 258.580 266.000,258.400 266.295,258.400 266.656 M289.200 266.576 C 289.200 266.893,289.380 267.264,289.600 267.400 C 289.820 267.536,290.000 267.277,290.000 266.824 C 290.000 266.371,289.820 266.000,289.600 266.000 C 289.380 266.000,289.200 266.259,289.200 266.576 M290.309 275.200 C 290.394 279.270,290.525 282.780,290.600 283.000 C 290.868 283.784,290.725 271.763,290.443 269.800 C 290.285 268.700,290.225 271.130,290.309 275.200 M210.800 269.600 C 210.800 269.820,210.575 270.000,210.300 270.000 C 210.025 270.001,209.316 270.863,208.724 271.917 C 208.132 272.970,207.277 274.168,206.824 274.578 C 206.371 274.988,206.000 275.542,206.000 275.808 C 206.000 276.074,205.640 276.750,205.200 277.309 C 204.760 277.869,204.400 278.552,204.400 278.828 C 204.400 279.372,207.075 275.690,207.976 273.907 C 208.279 273.305,208.889 272.405,209.331 271.907 C 209.772 271.408,210.495 270.595,210.936 270.100 C 211.382 269.600,211.531 269.200,211.270 269.200 C 211.011 269.200,210.800 269.380,210.800 269.600 M254.792 272.210 C 254.019 273.141,254.571 273.317,255.398 272.402 C 255.797 271.961,255.938 271.600,255.711 271.600 C 255.484 271.600,255.070 271.874,254.792 272.210 M293.467 273.867 C 293.062 274.272,293.160 277.319,293.600 278.000 C 293.873 278.423,293.990 277.862,293.994 276.100 C 294.000 273.581,293.953 273.381,293.467 273.867 M203.340 280.500 C 202.900 280.995,202.014 282.475,201.370 283.788 C 200.727 285.102,199.975 286.419,199.701 286.716 C 199.426 287.013,199.091 287.693,198.957 288.228 C 198.823 288.763,198.598 289.202,198.457 289.203 C 198.315 289.205,191.135 289.246,182.500 289.293 C 173.865 289.340,166.800 289.519,166.800 289.689 C 166.800 290.254,198.391 290.067,198.947 289.500 C 199.217 289.225,199.969 287.771,200.619 286.270 C 201.268 284.768,202.096 283.221,202.457 282.832 C 203.121 282.119,204.541 279.600,204.280 279.600 C 204.203 279.600,203.780 280.005,203.340 280.500 M292.800 286.344 C 292.800 287.853,292.732 289.878,292.650 290.844 C 292.567 291.810,292.581 292.150,292.681 291.600 C 292.780 291.050,293.028 290.429,293.231 290.220 C 293.736 289.700,293.707 283.600,293.200 283.600 C 292.972 283.600,292.800 284.781,292.800 286.344 M290.134 286.800 C 290.134 288.450,290.205 289.125,290.291 288.300 C 290.378 287.475,290.378 286.125,290.291 285.300 C 290.205 284.475,290.134 285.150,290.134 286.800 M157.867 287.067 C 157.720 287.213,157.600 289.823,157.600 292.867 L 157.600 298.400 177.167 298.400 C 192.446 298.400,196.778 298.510,196.935 298.900 C 197.056 299.200,197.149 299.122,197.168 298.704 C 197.198 298.053,195.943 298.001,177.791 297.904 L 158.381 297.800 158.291 292.513 L 158.200 287.225 162.200 287.097 L 166.200 286.969 162.167 286.884 C 159.948 286.838,158.013 286.920,157.867 287.067 M289.200 291.200 C 289.200 291.860,289.380 292.400,289.600 292.400 C 289.820 292.400,290.000 291.860,290.000 291.200 C 290.000 290.540,289.820 290.000,289.600 290.000 C 289.380 290.000,289.200 290.540,289.200 291.200 M288.800 294.576 C 288.800 295.139,288.980 295.600,289.200 295.600 C 289.420 295.600,289.600 295.251,289.600 294.824 C 289.600 294.397,289.420 293.936,289.200 293.800 C 288.973 293.660,288.800 293.996,288.800 294.576 M291.846 295.846 C 291.700 297.093,291.659 298.193,291.757 298.290 C 291.854 298.388,292.061 297.454,292.215 296.215 C 292.370 294.977,292.410 293.877,292.305 293.771 C 292.199 293.666,291.993 294.599,291.846 295.846 M227.738 296.617 C 227.414 297.461,227.955 297.917,228.416 297.188 C 228.905 296.414,228.895 296.000,228.387 296.000 C 228.161 296.000,227.868 296.278,227.738 296.617 M288.087 299.911 C 287.393 304.322,287.556 304.792,288.394 300.800 C 288.787 298.930,288.989 297.268,288.842 297.107 C 288.695 296.946,288.355 298.208,288.087 299.911 M225.295 300.547 C 224.374 301.948,223.433 303.613,223.204 304.247 L 222.787 305.400 223.562 304.411 C 223.989 303.867,224.251 303.282,224.145 303.111 C 224.039 302.940,224.154 302.800,224.400 302.800 C 224.646 302.800,224.748 302.639,224.626 302.442 C 224.504 302.245,224.674 301.981,225.002 301.854 C 225.331 301.728,225.600 301.349,225.600 301.013 C 225.600 300.676,225.741 300.400,225.912 300.400 C 226.084 300.400,226.428 299.860,226.678 299.200 C 227.301 297.549,227.204 297.643,225.295 300.547 M196.044 303.983 C 196.091 305.294,196.281 306.274,196.465 306.160 C 196.959 305.854,196.879 301.600,196.379 301.600 C 196.122 301.600,195.992 302.528,196.044 303.983 M290.339 303.500 C 290.306 303.665,290.243 303.980,290.200 304.200 C 290.158 304.420,289.983 304.923,289.812 305.317 C 289.419 306.224,289.917 306.777,290.416 305.988 C 290.804 305.374,290.948 303.200,290.600 303.200 C 290.490 303.200,290.373 303.335,290.339 303.500 M287.049 305.015 C 286.912 305.373,286.815 305.966,286.834 306.333 C 286.853 306.700,287.027 306.469,287.221 305.820 C 287.598 304.558,287.465 303.933,287.049 305.015 M289.195 307.300 C 289.192 307.575,289.090 308.250,288.969 308.800 L 288.750 309.800 289.361 308.800 C 290.071 307.638,290.171 306.800,289.600 306.800 C 289.380 306.800,289.198 307.025,289.195 307.300 M221.041 308.063 C 220.339 309.065,220.199 310.000,220.751 310.000 C 221.180 310.000,222.193 307.660,221.895 307.361 C 221.777 307.244,221.393 307.560,221.041 308.063 M286.188 307.740 C 285.794 308.179,284.800 311.113,284.800 311.835 C 284.800 312.491,285.889 310.590,286.383 309.073 C 286.915 307.438,286.851 307.001,286.188 307.740 M219.169 313.258 C 218.685 314.876,218.112 316.425,217.896 316.700 C 217.633 317.034,217.645 317.200,217.934 317.200 C 218.380 317.200,220.567 310.834,220.235 310.502 C 220.133 310.399,219.653 311.639,219.169 313.258 M196.000 312.153 C 196.000 312.923,196.180 313.664,196.400 313.800 C 196.638 313.947,196.800 313.479,196.800 312.647 C 196.800 311.877,196.620 311.136,196.400 311.000 C 196.162 310.853,196.000 311.321,196.000 312.153 M284.034 313.860 C 283.804 314.707,283.280 316.030,282.869 316.800 C 281.876 318.663,281.464 320.400,282.016 320.400 C 282.253 320.400,282.345 320.235,282.221 320.034 C 282.097 319.833,282.156 319.608,282.353 319.534 C 282.769 319.378,284.913 312.780,284.637 312.504 C 284.536 312.402,284.264 313.012,284.034 313.860 M287.429 313.895 C 287.269 314.608,286.972 315.294,286.769 315.419 C 286.291 315.714,286.291 316.400,286.769 316.400 C 287.230 316.400,288.125 313.768,287.892 313.097 C 287.798 312.823,287.589 313.183,287.429 313.895 M253.794 314.900 C 253.654 315.835,253.613 317.320,253.702 318.200 C 253.827 319.424,253.881 319.223,253.933 317.349 C 253.977 315.734,254.203 314.729,254.596 314.404 C 254.923 314.132,255.093 313.750,254.972 313.555 C 254.488 312.771,254.036 313.288,253.794 314.900 M257.328 316.800 C 257.328 318.230,257.401 318.815,257.489 318.100 C 257.578 317.385,257.578 316.215,257.489 315.500 C 257.401 314.785,257.328 315.370,257.328 316.800 M197.245 316.600 C 197.236 317.040,197.486 317.850,197.800 318.400 C 198.513 319.647,198.513 319.051,197.800 317.200 C 197.447 316.283,197.255 316.076,197.245 316.600 M217.329 318.601 C 216.670 319.898,215.868 323.202,216.145 323.478 C 216.285 323.618,216.400 323.383,216.400 322.956 C 216.400 322.528,216.686 321.770,217.036 321.270 C 217.385 320.771,217.575 320.113,217.458 319.807 C 217.341 319.502,217.442 319.186,217.682 319.106 C 217.923 319.026,218.033 318.699,217.927 318.381 C 217.778 317.934,217.642 317.984,217.329 318.601 M271.979 318.575 C 272.293 318.953,272.363 319.774,272.183 320.975 C 272.013 322.107,272.061 322.800,272.309 322.800 C 273.034 322.800,273.323 319.266,272.654 318.596 C 271.890 317.833,271.349 317.816,271.979 318.575 M268.583 319.172 C 268.709 319.377,268.630 319.658,268.407 319.796 C 267.930 320.090,267.856 321.200,268.312 321.200 C 268.484 321.200,268.828 320.660,269.078 320.000 C 269.453 319.005,269.430 318.800,268.942 318.800 C 268.618 318.800,268.456 318.968,268.583 319.172 M284.652 321.800 C 284.282 323.120,283.704 324.695,283.367 325.300 C 283.030 325.905,282.923 326.400,283.129 326.400 C 283.335 326.400,283.685 325.905,283.908 325.300 C 285.305 321.508,285.647 320.344,285.495 319.900 C 285.401 319.625,285.022 320.480,284.652 321.800 M198.800 320.581 C 198.800 320.681,199.009 321.221,199.264 321.781 C 199.815 322.989,200.415 323.144,200.116 322.000 C 200.001 321.560,199.737 321.200,199.530 321.200 C 199.322 321.200,199.264 321.020,199.400 320.800 C 199.536 320.580,199.457 320.400,199.224 320.400 C 198.991 320.400,198.800 320.482,198.800 320.581 M253.324 323.000 C 253.326 324.320,253.401 324.812,253.490 324.093 C 253.579 323.374,253.577 322.294,253.486 321.693 C 253.395 321.092,253.322 321.680,253.324 323.000 M280.835 322.442 C 280.564 323.345,280.237 324.380,280.108 324.742 C 279.978 325.104,279.976 325.310,280.103 325.200 C 280.566 324.798,281.978 320.800,281.657 320.800 C 281.476 320.800,281.105 321.539,280.835 322.442 M267.625 322.780 C 267.608 323.727,267.729 324.031,268.012 323.748 C 268.285 323.475,268.294 323.009,268.038 322.368 C 267.674 321.458,267.649 321.483,267.625 322.780 M256.924 324.200 C 256.926 325.520,257.001 326.012,257.090 325.293 C 257.179 324.574,257.177 323.494,257.086 322.893 C 256.995 322.292,256.922 322.880,256.924 324.200 M271.280 324.680 C 271.030 325.494,270.892 326.226,270.973 326.306 C 271.054 326.387,271.336 325.799,271.600 325.000 C 271.864 324.201,272.002 323.469,271.907 323.374 C 271.812 323.278,271.530 323.866,271.280 324.680 M215.422 325.422 C 215.272 326.225,215.228 326.962,215.326 327.060 C 215.424 327.157,215.627 326.581,215.778 325.778 C 215.928 324.975,215.972 324.238,215.874 324.140 C 215.776 324.043,215.573 324.619,215.422 325.422 M201.604 326.267 C 201.598 327.041,203.100 330.291,203.610 330.606 C 203.953 330.818,204.005 330.636,203.794 329.950 C 203.409 328.696,201.609 325.669,201.604 326.267 M266.846 327.463 C 266.821 327.937,266.260 329.529,265.600 331.000 C 264.529 333.387,263.980 335.753,264.654 335.079 C 265.180 334.553,267.236 327.894,267.068 327.261 C 266.943 326.790,266.879 326.848,266.846 327.463 M270.288 327.333 C 270.130 327.736,270.011 328.456,270.025 328.933 C 270.049 329.756,270.071 329.750,270.440 328.825 C 270.654 328.289,270.773 327.569,270.703 327.225 C 270.599 326.711,270.525 326.730,270.288 327.333 M282.184 327.700 C 282.036 328.195,281.124 330.253,280.157 332.273 C 278.298 336.159,278.086 336.782,278.911 335.929 C 279.401 335.422,280.903 332.160,282.010 329.200 C 282.298 328.430,282.706 327.575,282.916 327.300 C 283.165 326.975,283.151 326.800,282.876 326.800 C 282.644 326.800,282.332 327.205,282.184 327.700 M256.524 329.800 C 256.526 331.120,256.601 331.612,256.690 330.893 C 256.779 330.174,256.777 329.094,256.686 328.493 C 256.595 327.892,256.522 328.480,256.524 329.800 M277.579 329.855 C 277.022 331.320,277.282 331.380,278.089 329.974 C 278.460 329.328,278.587 328.800,278.371 328.800 C 278.156 328.800,277.800 329.275,277.579 329.855 M252.901 331.000 C 252.905 331.880,252.987 332.193,253.083 331.695 C 253.179 331.198,253.175 330.478,253.075 330.095 C 252.975 329.713,252.896 330.120,252.901 331.000 M269.497 330.300 C 269.155 330.981,269.215 333.442,269.587 334.000 C 269.878 334.436,269.989 333.969,269.994 332.300 C 270.000 330.152,269.858 329.581,269.497 330.300 M213.862 332.810 C 213.724 334.136,213.498 335.666,213.362 336.210 C 213.209 336.817,213.285 337.200,213.557 337.200 C 213.800 337.200,213.979 337.065,213.953 336.900 C 213.927 336.735,213.940 336.510,213.983 336.400 C 214.554 334.935,214.955 330.400,214.513 330.400 C 214.294 330.400,214.001 331.485,213.862 332.810 M255.858 333.657 C 255.680 334.238,255.577 335.048,255.629 335.457 C 255.719 336.166,255.587 336.666,254.776 338.700 C 254.389 339.671,253.364 339.914,253.091 339.100 C 252.994 338.811,252.941 338.853,252.965 339.200 C 252.988 339.536,253.470 339.854,254.062 339.923 C 255.441 340.083,256.517 337.532,256.315 334.577 C 256.199 332.872,256.136 332.745,255.858 333.657 M276.463 334.267 C 276.380 336.470,276.704 337.206,277.743 337.172 C 278.572 337.145,278.574 337.134,277.800 336.834 C 277.205 336.604,276.939 336.021,276.763 334.562 L 276.526 332.600 276.463 334.267 M267.931 338.192 C 267.324 339.524,266.104 339.876,265.355 338.936 C 264.790 338.228,264.773 338.230,264.887 339.000 C 265.105 340.456,266.918 340.246,268.157 338.620 C 268.753 337.839,269.048 337.200,268.812 337.200 C 268.576 337.200,268.179 337.647,267.931 338.192 M207.200 337.914 C 207.200 338.113,207.586 338.619,208.058 339.038 C 208.910 339.795,208.913 339.794,208.456 338.922 C 207.946 337.950,207.200 337.351,207.200 337.914 M212.197 338.404 C 211.794 338.848,210.910 339.373,210.233 339.570 C 209.102 339.898,209.083 339.931,210.000 339.962 C 211.020 339.997,213.592 338.266,213.164 337.833 C 213.035 337.702,212.599 337.959,212.197 338.404 " stroke="none" fill="#8cd0de" fill-rule="evenodd"></path><path id="path3" d="M158.343 77.700 C 158.264 77.975,158.291 93.950,158.403 113.200 L 158.607 148.200 158.703 113.474 C 158.767 90.485,158.940 78.486,159.214 77.974 C 159.534 77.377,159.498 77.200,159.057 77.200 C 158.743 77.200,158.421 77.425,158.343 77.700 M236.276 77.700 C 236.454 77.975,236.701 80.360,236.824 83.000 L 237.049 87.800 237.124 82.500 C 237.190 77.934,237.114 77.200,236.576 77.200 C 236.172 77.200,236.066 77.375,236.276 77.700 M228.300 85.465 C 228.691 85.623,228.806 90.316,228.828 106.933 C 228.844 118.630,229.017 128.560,229.214 129.000 C 229.427 129.475,229.479 120.875,229.341 107.800 C 229.104 85.316,229.097 85.177,228.276 85.232 C 227.933 85.254,227.939 85.319,228.300 85.465 M166.590 116.200 C 166.590 132.260,166.639 138.772,166.700 130.671 C 166.760 122.569,166.760 109.429,166.700 101.471 C 166.639 93.512,166.590 100.140,166.590 116.200 M229.115 141.482 C 229.178 147.356,229.313 152.246,229.415 152.348 C 229.517 152.450,229.600 147.643,229.600 141.667 C 229.600 135.690,229.465 130.800,229.300 130.800 C 229.135 130.800,229.052 135.607,229.115 141.482 M87.200 187.800 C 87.200 214.570,87.331 227.166,87.609 226.994 C 88.152 226.659,88.125 148.924,87.581 148.588 C 87.341 148.440,87.200 162.898,87.200 187.800 M307.867 148.667 C 307.417 149.116,307.549 226.721,308.000 227.000 C 308.266 227.164,308.400 214.004,308.400 187.824 C 308.400 166.141,308.340 148.400,308.267 148.400 C 308.193 148.400,308.013 148.520,307.867 148.667 M166.404 153.000 C 166.208 154.112,166.092 154.914,166.043 155.498 C 166.009 155.890,158.509 156.017,130.700 156.098 L 95.400 156.200 95.400 187.800 L 95.400 219.400 130.700 219.502 C 158.513 219.583,166.008 219.710,166.036 220.102 C 166.056 220.376,166.063 225.865,166.053 232.300 C 166.042 239.488,166.183 244.000,166.418 244.000 C 166.653 244.000,166.800 239.184,166.800 231.500 L 166.800 219.000 131.200 219.104 L 95.600 219.209 95.600 187.831 L 95.600 156.454 131.079 156.414 C 150.593 156.393,166.623 156.310,166.703 156.231 C 166.782 156.151,166.779 155.212,166.696 154.143 C 166.612 153.074,166.481 152.560,166.404 153.000 M229.254 155.253 C 229.180 156.700,226.802 156.625,265.600 156.393 L 300.200 156.187 264.928 156.093 L 229.656 156.000 229.482 155.100 C 229.327 154.295,229.303 154.311,229.254 155.253 M300.189 185.200 C 300.189 199.390,300.239 205.195,300.300 198.100 C 300.361 191.005,300.361 179.395,300.300 172.300 C 300.239 165.205,300.189 171.010,300.189 185.200 M254.574 164.043 C 254.390 164.339,254.574 164.399,255.129 164.222 C 255.779 164.016,256.092 164.218,256.576 165.154 C 256.916 165.812,257.389 166.470,257.627 166.616 C 257.864 166.763,257.682 166.145,257.221 165.242 C 256.392 163.615,255.178 163.066,254.574 164.043 M242.400 165.079 C 242.400 165.439,242.520 165.614,242.666 165.468 C 242.812 165.321,243.346 165.876,243.853 166.701 C 244.936 168.461,245.082 168.218,244.134 166.231 C 243.403 164.698,242.400 164.032,242.400 165.079 M253.600 165.600 C 253.344 166.078,253.225 166.559,253.335 166.669 C 253.445 166.779,253.744 166.478,254.000 166.000 C 254.256 165.522,254.375 165.041,254.265 164.931 C 254.155 164.821,253.856 165.122,253.600 165.600 M241.112 166.700 C 240.854 167.305,240.616 167.980,240.583 168.200 C 240.550 168.420,240.421 168.870,240.296 169.200 C 240.171 169.530,239.967 170.430,239.841 171.200 C 239.473 173.466,240.323 171.644,241.146 168.406 C 241.898 165.443,241.887 164.880,241.112 166.700 M245.200 169.592 C 245.200 169.807,245.452 170.662,245.761 171.492 C 246.069 172.321,246.434 173.341,246.570 173.757 C 246.707 174.174,246.903 174.430,247.007 174.327 C 247.110 174.223,246.819 173.028,246.361 171.669 C 245.579 169.355,245.200 168.677,245.200 169.592 M258.817 169.500 C 258.840 169.917,260.363 172.664,260.383 172.326 C 260.392 172.175,260.191 171.545,259.935 170.926 C 259.680 170.307,259.500 169.665,259.535 169.500 C 259.571 169.335,259.420 169.200,259.200 169.200 C 258.980 169.200,258.808 169.335,258.817 169.500 M260.456 173.200 C 260.456 173.530,260.611 174.160,260.800 174.600 C 261.017 175.104,261.144 175.178,261.144 174.800 C 261.144 174.470,260.989 173.840,260.800 173.400 C 260.583 172.896,260.456 172.822,260.456 173.200 M261.867 176.667 C 261.505 177.028,261.528 178.309,261.900 178.537 C 262.065 178.639,262.238 178.200,262.284 177.561 C 262.371 176.351,262.311 176.222,261.867 176.667 M250.257 178.300 C 250.120 179.125,250.018 180.160,250.030 180.600 L 250.051 181.400 250.368 180.600 C 250.935 179.175,251.248 176.800,250.870 176.800 C 250.669 176.800,250.393 177.475,250.257 178.300 M237.600 178.153 C 237.600 178.483,237.780 178.864,238.000 179.000 C 238.220 179.136,238.400 178.977,238.400 178.647 C 238.400 178.317,238.220 177.936,238.000 177.800 C 237.780 177.664,237.600 177.823,237.600 178.153 M248.715 180.400 C 248.812 181.060,248.960 181.600,249.045 181.600 C 249.130 181.600,249.200 181.060,249.200 180.400 C 249.200 179.740,249.051 179.200,248.869 179.200 C 248.687 179.200,248.618 179.740,248.715 180.400 M237.416 180.848 C 237.632 182.550,238.000 182.829,238.000 181.290 C 238.000 180.607,237.833 179.944,237.628 179.818 C 237.418 179.688,237.326 180.135,237.416 180.848 M262.810 181.027 C 263.634 183.195,267.185 188.949,267.502 188.631 C 267.602 188.531,266.874 187.223,265.884 185.725 C 264.894 184.226,263.872 182.325,263.611 181.500 C 263.351 180.675,262.976 180.000,262.779 180.000 C 262.575 180.000,262.588 180.444,262.810 181.027 M237.087 183.873 C 236.981 184.053,236.765 184.830,236.608 185.600 C 236.451 186.370,235.966 187.630,235.530 188.400 L 234.737 189.800 235.586 188.972 C 236.053 188.516,236.690 187.174,237.003 185.990 C 237.524 184.013,237.562 183.070,237.087 183.873 M231.900 191.503 C 231.295 191.878,230.800 192.324,230.800 192.493 C 230.800 192.945,230.915 192.895,232.400 191.800 C 233.930 190.671,233.579 190.462,231.900 191.503 M268.800 191.071 C 268.800 191.398,271.667 195.600,271.890 195.600 C 272.080 195.600,271.841 195.172,270.271 192.700 C 269.094 190.845,268.800 190.520,268.800 191.071 M227.009 194.924 C 226.131 195.453,225.188 196.521,225.406 196.740 C 225.484 196.817,225.784 196.682,226.074 196.440 C 226.363 196.198,227.050 195.646,227.600 195.213 C 228.689 194.356,228.282 194.157,227.009 194.924 M273.907 199.882 C 274.728 201.687,275.527 203.172,275.683 203.182 C 276.017 203.203,273.976 198.790,273.053 197.496 C 272.702 197.003,273.086 198.077,273.907 199.882 M223.971 197.713 C 223.148 198.349,221.038 201.972,221.323 202.257 C 221.445 202.378,221.941 201.695,222.426 200.739 C 222.911 199.782,223.418 198.910,223.554 198.800 C 223.948 198.480,224.913 197.199,224.749 197.213 C 224.667 197.220,224.317 197.445,223.971 197.713 M276.000 203.776 C 276.000 204.369,280.277 212.001,281.057 212.800 C 281.938 213.702,281.312 212.143,280.174 210.600 C 279.096 209.140,276.610 204.316,276.721 203.900 C 276.764 203.735,276.620 203.600,276.400 203.600 C 276.180 203.600,276.000 203.679,276.000 203.776 M218.200 207.376 C 217.320 208.319,216.330 209.181,216.000 209.291 C 215.670 209.401,215.506 209.606,215.636 209.748 C 216.038 210.187,218.516 208.268,219.315 206.899 C 220.290 205.230,220.145 205.292,218.200 207.376 M213.600 210.372 C 213.600 210.577,213.195 210.822,212.700 210.918 C 211.928 211.066,211.957 211.099,212.900 211.146 C 213.635 211.182,214.000 211.001,214.000 210.600 C 214.000 210.270,213.910 210.000,213.800 210.000 C 213.690 210.000,213.600 210.167,213.600 210.372 M208.617 212.037 C 207.086 212.454,205.556 213.086,205.217 213.442 C 204.655 214.031,204.672 214.052,205.400 213.678 C 205.840 213.452,207.280 212.958,208.600 212.582 C 209.920 212.205,211.171 211.740,211.380 211.549 C 211.589 211.357,211.679 211.218,211.580 211.240 C 211.481 211.262,210.148 211.620,208.617 212.037 M300.114 213.000 C 300.117 214.100,300.195 214.503,300.287 213.895 C 300.379 213.286,300.377 212.386,300.282 211.895 C 300.187 211.403,300.111 211.900,300.114 213.000 M282.448 215.200 C 282.943 216.080,283.497 216.800,283.679 216.800 C 283.862 216.800,283.535 216.080,282.953 215.200 C 282.370 214.320,281.816 213.600,281.721 213.600 C 281.626 213.600,281.953 214.320,282.448 215.200 M201.000 214.400 L 199.800 214.705 200.876 214.753 C 201.468 214.779,202.064 214.620,202.200 214.400 C 202.336 214.180,202.392 214.021,202.324 214.047 C 202.256 214.073,201.660 214.232,201.000 214.400 M196.800 215.600 C 196.800 216.106,197.617 216.106,198.400 215.600 C 198.868 215.298,198.757 215.211,197.900 215.206 C 197.295 215.203,196.800 215.380,196.800 215.600 M260.974 215.957 C 261.124 216.201,261.488 216.400,261.782 216.400 C 262.076 216.400,262.887 217.049,263.583 217.842 C 264.280 218.635,264.946 219.187,265.065 219.069 C 265.396 218.738,262.635 216.128,261.609 215.803 C 260.988 215.606,260.787 215.655,260.974 215.957 M194.600 216.800 C 193.036 217.836,193.592 217.837,195.290 216.801 C 196.011 216.362,196.420 216.004,196.200 216.004 C 195.980 216.005,195.260 216.363,194.600 216.800 M259.964 217.267 C 259.646 217.861,259.587 219.311,259.774 221.870 C 260.008 225.055,259.957 225.642,259.424 225.846 C 259.081 225.978,258.800 226.343,258.800 226.658 C 258.800 227.085,259.018 227.028,259.656 226.433 C 260.446 225.698,260.492 225.376,260.249 222.318 C 260.105 220.493,260.157 218.415,260.365 217.700 C 260.802 216.200,260.633 216.017,259.964 217.267 M300.032 218.300 C 299.989 219.513,285.496 219.748,285.033 218.543 C 284.895 218.181,284.691 217.975,284.581 218.085 C 283.377 219.289,284.992 219.600,292.455 219.600 C 300.294 219.600,300.895 219.470,300.269 217.913 C 300.156 217.631,300.049 217.805,300.032 218.300 M192.100 218.670 C 190.888 219.515,191.540 222.800,192.919 222.800 C 193.109 222.800,192.869 222.159,192.385 221.376 L 191.505 219.952 192.422 218.976 C 193.473 217.858,193.384 217.774,192.100 218.670 M266.981 222.200 C 267.395 222.860,268.021 223.670,268.371 224.000 C 268.722 224.330,269.544 225.320,270.198 226.200 C 271.593 228.078,272.210 228.855,273.700 230.610 C 274.305 231.323,274.800 232.064,274.800 232.257 C 274.800 232.450,275.171 232.839,275.624 233.122 C 276.381 233.595,276.413 233.572,276.022 232.841 C 275.787 232.403,275.413 231.931,275.189 231.793 C 274.965 231.655,274.072 230.580,273.204 229.405 C 272.336 228.230,271.170 226.777,270.613 226.176 C 270.056 225.575,269.600 224.930,269.600 224.742 C 269.600 224.554,268.842 223.636,267.914 222.700 C 266.534 221.308,266.365 221.217,266.981 222.200 M194.966 226.512 C 195.956 228.283,196.298 229.305,196.122 229.975 C 195.949 230.638,196.014 230.839,196.337 230.639 C 197.212 230.098,194.997 224.000,193.926 224.000 C 193.725 224.000,194.193 225.131,194.966 226.512 M255.142 227.898 C 254.439 228.738,253.504 230.838,253.731 231.065 C 253.820 231.153,254.124 230.635,254.408 229.913 C 254.691 229.191,255.198 228.377,255.533 228.104 C 255.868 227.831,256.049 227.515,255.935 227.402 C 255.821 227.288,255.464 227.511,255.142 227.898 M290.400 228.115 C 290.400 228.179,290.760 228.937,291.200 229.800 C 292.096 231.558,292.246 231.337,291.520 229.328 C 291.143 228.287,290.400 227.482,290.400 228.115 M158.561 236.400 C 158.561 239.810,158.622 241.205,158.697 239.500 C 158.772 237.795,158.772 235.005,158.697 233.300 C 158.622 231.595,158.561 232.990,158.561 236.400 M252.467 233.180 C 252.233 233.851,252.191 234.400,252.374 234.400 C 252.691 234.400,253.259 232.332,253.011 232.080 C 252.946 232.013,252.701 232.508,252.467 233.180 M197.434 234.000 C 197.576 234.770,197.846 235.670,198.034 236.000 C 198.661 237.101,198.460 235.424,197.788 233.946 L 197.175 232.600 197.434 234.000 M293.424 234.500 C 293.854 235.896,294.838 237.696,295.052 237.481 C 295.261 237.272,293.631 233.600,293.329 233.600 C 293.228 233.600,293.271 234.005,293.424 234.500 M277.504 235.585 C 278.107 236.456,278.741 237.176,278.914 237.185 C 279.293 237.203,278.696 236.130,277.643 234.900 C 276.399 233.449,276.315 233.866,277.504 235.585 M198.400 237.144 C 198.400 237.826,198.874 238.800,199.205 238.800 C 199.607 238.800,199.226 237.263,198.752 236.970 C 198.558 236.851,198.400 236.929,198.400 237.144 M249.293 239.206 C 248.313 240.909,248.232 241.200,248.739 241.200 C 249.124 241.200,250.616 238.083,250.356 237.823 C 250.263 237.730,249.785 238.352,249.293 239.206 M279.095 237.863 C 279.368 237.973,279.943 238.859,280.373 239.832 C 280.803 240.804,281.249 241.600,281.365 241.600 C 281.480 241.600,281.400 241.195,281.186 240.700 C 280.972 240.205,280.601 239.305,280.360 238.700 C 280.117 238.092,279.626 237.614,279.261 237.632 C 278.853 237.651,278.790 237.740,279.095 237.863 M252.620 238.368 C 252.399 238.726,253.405 240.000,253.909 240.000 C 254.047 240.000,253.958 239.798,253.711 239.551 C 253.464 239.304,253.358 238.854,253.474 238.551 C 253.708 237.941,252.980 237.785,252.620 238.368 M256.035 239.072 C 256.804 241.381,254.506 243.137,252.856 241.500 C 252.452 241.099,252.405 241.139,252.619 241.700 C 253.074 242.895,255.363 242.795,256.458 241.533 C 257.402 240.445,257.392 239.917,256.406 238.744 L 255.612 237.800 256.035 239.072 M295.280 238.600 C 295.280 239.040,295.424 239.850,295.600 240.400 C 295.854 241.192,295.920 241.233,295.920 240.600 C 295.920 240.160,295.776 239.350,295.600 238.800 C 295.346 238.008,295.280 237.967,295.280 238.600 M200.200 240.000 C 200.598 240.440,201.190 240.800,201.516 240.800 C 201.897 240.800,201.745 240.515,201.091 240.000 C 200.531 239.560,199.939 239.200,199.775 239.200 C 199.611 239.200,199.802 239.560,200.200 240.000 M247.600 242.400 C 247.365 242.840,246.829 243.200,246.410 243.200 C 245.990 243.200,245.545 243.365,245.421 243.566 C 244.924 244.370,247.364 243.307,247.913 242.481 C 248.234 241.996,248.392 241.600,248.263 241.600 C 248.134 241.600,247.835 241.960,247.600 242.400 M210.200 242.404 C 211.621 242.805,219.288 243.112,218.881 242.751 C 218.726 242.614,216.440 242.404,213.800 242.283 C 210.889 242.151,209.472 242.198,210.200 242.404 M281.826 242.881 C 282.095 243.730,283.200 245.118,283.200 244.609 C 283.200 244.190,281.993 242.000,281.763 242.000 C 281.644 242.000,281.672 242.397,281.826 242.881 M224.400 243.200 C 224.730 243.413,225.630 243.588,226.400 243.588 C 227.450 243.588,227.650 243.491,227.200 243.200 C 226.870 242.987,225.970 242.812,225.200 242.812 C 224.150 242.812,223.950 242.909,224.400 243.200 M296.663 245.280 C 297.000 247.049,297.200 247.201,297.200 245.690 C 297.200 245.007,297.023 244.338,296.806 244.204 C 296.560 244.052,296.506 244.455,296.663 245.280 M228.835 250.222 C 228.816 252.661,228.949 253.955,229.202 253.799 C 229.702 253.490,229.732 246.400,229.233 246.400 C 229.031 246.400,228.852 248.120,228.835 250.222 M244.667 247.067 C 244.290 247.443,244.346 249.696,244.748 250.330 C 244.952 250.651,245.067 250.064,245.042 248.832 C 245.019 247.717,244.985 246.804,244.967 246.802 C 244.948 246.801,244.813 246.920,244.667 247.067 M284.158 247.200 C 285.073 250.085,285.372 250.800,285.663 250.800 C 286.179 250.800,286.050 250.356,284.966 248.400 C 284.417 247.410,284.053 246.870,284.158 247.200 M296.715 248.800 C 296.618 249.460,296.687 250.000,296.869 250.000 C 297.051 250.000,297.200 249.460,297.200 248.800 C 297.200 248.140,297.130 247.600,297.045 247.600 C 296.960 247.600,296.812 248.140,296.715 248.800 M244.608 252.786 C 243.960 253.836,247.063 257.892,248.185 257.461 C 248.523 257.331,248.800 257.399,248.800 257.613 C 248.800 257.826,249.016 258.000,249.280 258.000 C 249.800 258.000,249.030 257.019,248.480 256.980 C 246.836 256.865,244.346 253.858,245.008 252.786 C 245.140 252.574,245.157 252.400,245.047 252.400 C 244.937 252.400,244.740 252.574,244.608 252.786 M295.467 253.867 C 295.320 254.013,295.218 254.688,295.241 255.367 L 295.282 256.600 295.610 255.203 C 295.953 253.747,295.917 253.416,295.467 253.867 M287.034 255.200 C 287.450 257.358,288.065 258.527,287.771 256.600 C 287.637 255.720,287.356 254.730,287.146 254.400 C 286.887 253.992,286.852 254.249,287.034 255.200 M226.596 257.204 C 225.966 257.862,225.582 258.400,225.743 258.400 C 226.209 258.400,228.183 256.450,227.952 256.218 C 227.836 256.103,227.226 256.546,226.596 257.204 M288.018 259.033 C 288.027 259.455,288.283 260.496,288.587 261.348 C 288.890 262.199,289.050 263.125,288.942 263.407 C 288.834 263.689,288.938 264.038,289.173 264.183 C 289.755 264.543,289.709 263.659,289.006 260.959 C 288.373 258.529,287.989 257.780,288.018 259.033 M294.226 259.659 C 293.187 265.826,292.828 274.532,293.647 273.713 C 293.932 273.428,294.027 272.200,293.909 270.333 C 293.807 268.720,293.972 265.441,294.275 263.046 C 294.782 259.031,294.747 256.567,294.226 259.659 M255.200 259.378 C 255.200 259.466,255.695 260.054,256.300 260.685 C 256.905 261.315,257.615 262.184,257.878 262.615 C 258.141 263.047,258.077 262.655,257.735 261.745 C 257.247 260.445,255.200 258.534,255.200 259.378 M222.060 260.803 C 221.147 261.464,220.400 262.184,220.400 262.403 C 220.400 262.621,220.715 262.525,221.100 262.189 C 221.485 261.853,222.340 261.139,223.000 260.602 C 224.692 259.225,224.048 259.362,222.060 260.803 M217.800 263.759 C 215.723 265.128,209.833 270.766,210.149 271.083 C 210.249 271.182,211.755 269.809,213.497 268.032 C 215.239 266.254,216.884 264.800,217.154 264.800 C 217.423 264.800,218.219 264.261,218.922 263.602 C 220.547 262.078,220.297 262.113,217.800 263.759 M258.321 264.841 C 258.414 265.479,258.650 266.000,258.845 266.000 C 259.409 266.000,259.256 264.107,258.675 263.884 C 258.296 263.739,258.198 264.003,258.321 264.841 M289.200 265.400 C 289.200 265.730,289.380 266.000,289.600 266.000 C 289.820 266.000,290.021 266.495,290.046 267.100 C 290.077 267.834,290.156 267.957,290.282 267.468 C 290.531 266.505,290.090 264.800,289.592 264.800 C 289.377 264.800,289.200 265.070,289.200 265.400 M257.029 268.629 C 256.683 268.974,256.400 269.399,256.400 269.573 C 256.400 269.746,255.791 270.534,255.046 271.324 C 253.515 272.947,253.511 273.652,255.042 272.122 C 256.048 271.116,258.158 268.000,257.834 268.000 C 257.737 268.000,257.374 268.283,257.029 268.629 M290.501 269.800 C 290.505 270.680,290.587 270.993,290.683 270.495 C 290.779 269.998,290.775 269.278,290.675 268.895 C 290.575 268.513,290.496 268.920,290.501 269.800 M208.500 272.999 C 208.005 273.764,207.600 274.515,207.600 274.670 C 207.600 275.079,209.013 273.497,209.560 272.475 C 210.312 271.069,209.485 271.479,208.500 272.999 M290.955 277.800 C 290.956 280.660,291.020 281.778,291.097 280.283 C 291.174 278.789,291.174 276.449,291.096 275.083 C 291.018 273.718,290.955 274.940,290.955 277.800 M205.724 277.521 C 204.203 279.804,202.994 282.175,203.515 281.853 C 203.724 281.723,204.121 281.073,204.396 280.409 C 204.672 279.744,205.055 279.200,205.249 279.200 C 205.442 279.200,205.600 279.003,205.600 278.762 C 205.600 278.521,205.980 277.790,206.444 277.139 C 206.908 276.487,207.217 275.884,207.131 275.798 C 207.046 275.712,206.412 276.488,205.724 277.521 M293.043 278.233 C 292.636 279.293,292.769 283.600,293.208 283.600 C 293.459 283.600,293.575 282.442,293.511 280.600 C 293.395 277.320,293.394 277.316,293.043 278.233 M201.895 283.547 C 201.513 284.194,201.201 284.966,201.201 285.262 C 201.202 285.558,201.571 285.196,202.021 284.458 C 202.471 283.720,202.783 282.949,202.714 282.743 C 202.646 282.538,202.277 282.900,201.895 283.547 M290.493 286.800 C 290.493 287.570,290.575 287.885,290.676 287.500 C 290.776 287.115,290.776 286.485,290.676 286.100 C 290.575 285.715,290.493 286.030,290.493 286.800 M158.291 292.500 L 158.381 297.800 177.791 297.806 L 197.200 297.812 177.900 297.702 L 158.600 297.592 158.659 292.396 C 158.691 289.538,158.601 287.200,158.459 287.200 C 158.316 287.199,158.241 289.584,158.291 292.500 M166.000 287.800 C 166.000 288.130,166.180 288.400,166.400 288.400 C 166.620 288.400,166.800 288.130,166.800 287.800 C 166.800 287.470,166.620 287.200,166.400 287.200 C 166.180 287.200,166.000 287.470,166.000 287.800 M199.600 288.533 C 199.600 288.900,199.420 289.200,199.200 289.200 C 198.980 289.200,198.800 289.380,198.800 289.600 C 198.800 289.820,198.968 290.000,199.173 290.000 C 199.623 290.000,200.170 288.437,199.837 288.103 C 199.706 287.973,199.600 288.167,199.600 288.533 M169.700 289.491 C 170.525 289.578,171.875 289.578,172.700 289.491 C 173.525 289.405,172.850 289.334,171.200 289.334 C 169.550 289.334,168.875 289.405,169.700 289.491 M290.046 290.900 C 290.021 291.725,289.820 292.400,289.600 292.400 C 289.094 292.400,289.073 293.874,289.574 294.184 C 290.007 294.452,290.570 291.256,290.285 290.147 C 290.179 289.736,290.072 290.075,290.046 290.900 M291.849 293.415 C 291.712 293.773,291.623 294.636,291.650 295.333 C 291.692 296.387,291.750 296.298,291.999 294.800 C 292.317 292.886,292.259 292.348,291.849 293.415 M288.867 297.100 C 288.881 297.925,288.629 299.905,288.308 301.500 C 287.986 303.095,287.876 304.400,288.062 304.400 C 288.248 304.400,288.406 304.175,288.414 303.900 C 288.422 303.625,288.688 301.960,289.006 300.200 C 289.691 296.412,289.729 295.600,289.221 295.600 C 289.013 295.600,288.854 296.275,288.867 297.100 M226.512 297.975 C 226.121 298.682,225.485 299.633,225.100 300.091 C 224.715 300.548,224.406 301.120,224.413 301.361 C 224.420 301.603,224.663 301.488,224.952 301.106 C 225.242 300.725,225.625 300.545,225.804 300.706 C 225.982 300.868,226.012 300.796,225.870 300.547 C 225.728 300.298,226.068 299.422,226.625 298.601 C 227.183 297.779,227.546 297.013,227.432 296.899 C 227.318 296.785,226.904 297.269,226.512 297.975 M290.821 299.498 C 290.542 300.764,290.153 302.322,289.957 302.960 C 289.485 304.493,289.505 305.306,290.007 304.996 C 290.230 304.858,290.305 304.569,290.172 304.355 C 290.040 304.140,290.114 303.744,290.338 303.475 C 290.785 302.936,291.798 297.665,291.509 297.376 C 291.410 297.277,291.100 298.232,290.821 299.498 M196.934 302.000 C 196.934 303.650,197.005 304.325,197.091 303.500 C 197.178 302.675,197.178 301.325,197.091 300.500 C 197.005 299.675,196.934 300.350,196.934 302.000 M222.243 304.990 C 221.391 306.291,220.695 308.112,221.160 307.825 C 221.632 307.533,223.284 304.351,223.073 304.139 C 222.982 304.049,222.609 304.432,222.243 304.990 M287.249 305.600 C 287.216 305.930,287.089 306.650,286.967 307.200 C 286.775 308.064,286.807 308.103,287.199 307.488 C 287.448 307.097,287.575 306.377,287.481 305.888 C 287.386 305.400,287.282 305.270,287.249 305.600 M196.043 308.179 C 195.996 309.619,196.143 310.841,196.380 310.988 C 196.657 311.159,196.800 310.361,196.800 308.647 C 196.800 305.261,196.150 304.860,196.043 308.179 M219.670 310.370 C 219.006 312.274,219.114 312.870,219.826 311.230 C 220.153 310.477,220.357 309.672,220.280 309.441 C 220.203 309.210,219.929 309.629,219.670 310.370 M287.817 311.272 C 287.455 312.442,286.990 313.928,286.786 314.573 C 286.581 315.218,286.569 315.578,286.757 315.373 C 287.248 314.841,288.923 309.589,288.679 309.346 C 288.568 309.235,288.180 310.101,287.817 311.272 M285.033 312.100 C 284.165 314.244,283.853 316.198,284.666 314.400 C 285.444 312.679,286.011 310.800,285.752 310.800 C 285.646 310.800,285.322 311.385,285.033 312.100 M196.909 313.200 C 196.909 314.190,196.987 314.595,197.082 314.100 C 197.178 313.605,197.178 312.795,197.082 312.300 C 196.987 311.805,196.909 312.210,196.909 313.200 M218.481 313.887 C 217.716 315.881,217.477 317.033,217.918 316.600 C 218.348 316.178,219.274 313.141,219.043 312.910 C 218.969 312.835,218.716 313.275,218.481 313.887 M256.000 313.520 C 256.000 313.696,256.208 314.048,256.461 314.301 C 256.904 314.744,256.794 317.437,255.777 331.000 C 255.646 332.746,255.703 333.574,255.928 333.200 C 256.613 332.059,257.506 315.262,256.957 313.833 C 256.707 313.181,256.000 312.950,256.000 313.520 M254.267 314.667 C 254.120 314.813,254.011 315.308,254.025 315.767 C 254.049 316.533,254.082 316.523,254.434 315.642 C 254.826 314.663,254.744 314.189,254.267 314.667 M197.200 315.453 C 197.200 315.681,197.325 315.992,197.478 316.145 C 197.631 316.298,197.794 316.677,197.839 316.988 C 198.016 318.190,198.877 320.400,199.169 320.400 C 199.529 320.400,198.108 315.977,197.568 315.420 C 197.336 315.181,197.200 315.193,197.200 315.453 M253.825 319.900 C 253.694 321.385,253.504 323.486,253.404 324.569 C 253.280 325.909,253.352 326.408,253.630 326.130 C 254.058 325.702,254.688 317.200,254.292 317.200 C 254.166 317.200,253.956 318.415,253.825 319.900 M285.473 317.753 C 285.323 318.145,285.211 318.766,285.225 319.133 C 285.242 319.575,285.381 319.474,285.637 318.834 C 285.849 318.303,285.961 317.682,285.885 317.454 C 285.809 317.227,285.624 317.361,285.473 317.753 M269.590 318.818 C 269.186 319.574,269.215 319.597,269.976 319.122 C 270.842 318.581,271.069 318.000,270.414 318.000 C 270.202 318.000,269.831 318.368,269.590 318.818 M271.200 318.351 C 271.200 318.598,271.368 318.800,271.573 318.800 C 271.779 318.800,272.008 319.295,272.083 319.900 C 272.217 320.979,272.223 320.976,272.440 319.703 C 272.561 318.990,272.573 318.493,272.467 318.600 C 272.361 318.706,272.032 318.593,271.737 318.348 C 271.342 318.020,271.200 318.021,271.200 318.351 M282.200 320.000 C 282.336 320.220,282.295 320.400,282.109 320.400 C 281.923 320.400,281.746 320.715,281.716 321.100 C 281.686 321.485,281.288 322.670,280.831 323.733 C 280.374 324.796,280.006 325.876,280.014 326.133 C 280.022 326.390,280.537 325.426,281.158 323.992 C 282.716 320.395,282.942 319.600,282.403 319.600 C 282.156 319.600,282.064 319.780,282.200 320.000 M283.730 323.109 C 283.279 324.369,282.776 325.715,282.612 326.100 C 282.418 326.556,282.492 326.800,282.824 326.800 C 283.104 326.800,283.213 326.679,283.065 326.532 C 282.918 326.384,283.033 325.889,283.321 325.432 C 283.917 324.487,284.934 321.201,284.703 320.970 C 284.619 320.886,284.181 321.848,283.730 323.109 M268.000 321.976 C 268.000 323.120,268.590 323.287,268.658 322.162 C 268.689 321.633,268.554 321.200,268.358 321.200 C 268.161 321.200,268.000 321.549,268.000 321.976 M215.223 324.200 C 214.950 325.300,214.659 326.920,214.578 327.800 C 214.490 328.748,214.753 328.106,215.223 326.225 C 215.660 324.478,215.950 322.858,215.868 322.625 C 215.787 322.391,215.496 323.100,215.223 324.200 M201.200 324.149 C 201.200 324.854,202.672 328.000,203.002 328.000 C 203.192 328.000,201.670 323.937,201.367 323.633 C 201.275 323.542,201.200 323.774,201.200 324.149 M270.625 325.255 C 269.798 327.322,269.177 330.461,269.653 330.167 C 269.844 330.049,270.000 329.558,270.000 329.076 C 270.000 328.594,270.368 327.233,270.817 326.051 C 271.267 324.868,271.559 323.826,271.467 323.734 C 271.375 323.642,270.996 324.327,270.625 325.255 M267.506 326.000 C 267.370 326.330,267.173 327.140,267.067 327.800 C 266.961 328.460,266.764 329.450,266.628 330.000 C 266.493 330.550,266.755 330.198,267.210 329.218 C 267.665 328.237,267.973 326.977,267.895 326.418 C 267.796 325.712,267.677 325.584,267.506 326.000 M281.038 329.516 C 280.638 330.332,280.139 331.333,279.928 331.739 C 279.717 332.145,279.645 332.578,279.767 332.700 C 279.889 332.823,280.450 331.883,281.012 330.612 C 282.152 328.034,282.172 327.201,281.038 329.516 M203.833 330.000 C 204.130 331.114,204.319 331.414,204.567 331.166 C 204.659 331.074,204.472 330.549,204.151 329.999 L 203.567 329.000 203.833 330.000 M277.616 330.840 C 276.803 332.632,276.515 336.177,277.150 336.569 C 277.343 336.688,277.412 336.006,277.305 335.053 C 277.166 333.820,277.355 332.766,277.960 331.398 C 278.427 330.341,278.721 329.387,278.612 329.279 C 278.503 329.170,278.055 329.873,277.616 330.840 M253.050 332.050 C 252.702 333.791,252.737 338.314,253.100 338.538 C 253.265 338.640,253.440 336.940,253.488 334.761 C 253.580 330.626,253.470 329.948,253.050 332.050 M204.801 332.603 C 205.011 333.154,205.493 334.189,205.873 334.903 C 206.253 335.616,206.548 336.290,206.529 336.400 C 206.509 336.510,206.856 336.960,207.299 337.400 C 207.742 337.840,208.026 338.020,207.928 337.800 C 205.894 333.195,203.537 329.278,204.801 332.603 M265.380 333.364 C 265.231 334.158,264.950 334.907,264.755 335.028 C 264.320 335.297,264.279 337.600,264.709 337.600 C 265.057 337.600,266.127 332.394,265.838 332.105 C 265.736 332.002,265.530 332.569,265.380 333.364 M268.828 333.900 C 268.813 334.835,268.980 335.600,269.200 335.600 C 269.679 335.600,269.679 334.116,269.200 333.000 C 268.934 332.380,268.850 332.583,268.828 333.900 M212.789 336.630 C 212.145 338.323,211.314 338.901,209.780 338.722 C 208.920 338.621,208.439 338.720,208.524 338.980 C 209.046 340.574,212.905 338.654,213.297 336.604 C 213.545 335.305,213.287 335.318,212.789 336.630 M254.520 338.541 C 254.344 338.839,253.930 339.185,253.600 339.310 C 253.116 339.493,253.132 339.543,253.686 339.568 C 254.063 339.586,254.565 339.240,254.800 338.800 C 255.275 337.913,255.027 337.684,254.520 338.541 M265.220 338.820 C 266.106 339.706,267.365 339.588,267.750 338.585 C 268.045 337.818,267.700 337.843,266.898 338.644 C 266.306 339.237,266.216 339.237,265.783 338.644 C 265.524 338.290,265.107 338.000,264.856 338.000 C 264.605 338.000,264.769 338.369,265.220 338.820 " stroke="none" fill="#5eb2cf" fill-rule="evenodd"></path><path id="path4" d="M105.100 148.700 C 114.835 148.760,130.765 148.760,140.500 148.700 C 150.235 148.640,142.270 148.591,122.800 148.591 C 103.330 148.591,95.365 148.640,105.100 148.700 M254.930 148.700 C 264.792 148.760,280.812 148.759,290.530 148.700 C 300.249 148.640,292.180 148.591,272.600 148.592 C 253.020 148.592,245.069 148.640,254.930 148.700 M300.101 216.200 C 300.105 217.080,300.187 217.393,300.283 216.895 C 300.379 216.398,300.375 215.678,300.275 215.295 C 300.175 214.913,300.096 215.320,300.101 216.200 M299.000 226.800 L 290.600 227.025 299.324 227.112 C 305.059 227.170,307.963 227.063,307.800 226.800 C 307.664 226.580,307.518 226.439,307.476 226.488 C 307.434 226.536,303.620 226.676,299.000 226.800 M105.100 227.100 C 114.835 227.160,130.765 227.160,140.500 227.100 C 150.235 227.040,142.270 226.991,122.800 226.991 C 103.330 226.991,95.365 227.040,105.100 227.100 M114.000 230.957 C 114.000 231.518,115.150 232.183,115.505 231.828 C 115.708 231.625,114.613 230.400,114.229 230.400 C 114.103 230.400,114.000 230.651,114.000 230.957 M213.100 242.282 C 213.595 242.378,214.405 242.378,214.900 242.282 C 215.395 242.187,214.990 242.109,214.000 242.109 C 213.010 242.109,212.605 242.187,213.100 242.282 M158.399 244.100 C 158.400 244.265,160.335 244.370,162.700 244.333 C 167.068 244.264,166.547 244.107,161.299 243.909 C 159.704 243.849,158.399 243.935,158.399 244.100 M234.200 267.163 C 228.962 269.605,227.040 273.644,227.143 282.000 C 227.188 285.685,228.419 294.152,228.992 294.726 C 229.403 295.136,229.187 293.199,228.525 290.525 C 226.573 282.644,227.800 272.963,231.136 269.931 C 236.137 265.384,244.390 267.460,244.399 273.267 C 244.402 275.677,245.258 276.174,247.138 274.856 C 249.581 273.143,254.026 272.766,256.542 274.057 C 257.207 274.399,257.298 274.390,256.949 274.018 C 255.978 272.985,248.800 272.265,248.800 273.200 C 248.800 273.420,248.554 273.600,248.254 273.600 C 247.954 273.600,247.246 273.963,246.682 274.407 C 245.500 275.337,245.513 275.350,244.635 272.290 C 243.296 267.624,238.386 265.212,234.200 267.163 M257.947 275.289 C 258.240 275.668,258.812 277.018,259.218 278.289 C 259.625 279.560,259.966 280.240,259.976 279.800 C 260.013 278.291,259.195 276.120,258.305 275.360 C 257.605 274.763,257.528 274.748,257.947 275.289 M259.460 282.300 C 259.327 282.905,259.100 283.850,258.955 284.400 C 258.746 285.192,258.796 285.302,259.194 284.931 C 259.471 284.673,259.783 283.728,259.886 282.831 C 260.100 280.982,259.823 280.637,259.460 282.300 M255.115 289.530 C 254.298 290.119,253.623 290.724,253.615 290.876 C 253.588 291.378,255.658 290.096,256.257 289.239 C 256.984 288.202,256.946 288.211,255.115 289.530 M247.300 293.065 C 246.481 293.395,246.733 293.943,247.600 293.716 C 248.040 293.601,248.400 293.348,248.400 293.153 C 248.400 292.772,248.088 292.747,247.300 293.065 M239.354 296.868 C 237.516 298.252,237.310 298.537,238.629 297.872 C 239.734 297.315,241.191 296.000,240.703 296.000 C 240.596 296.000,239.989 296.391,239.354 296.868 M167.900 297.500 C 173.235 297.563,181.965 297.563,187.300 297.500 C 192.635 297.437,188.270 297.385,177.600 297.385 C 166.930 297.385,162.565 297.437,167.900 297.500 M229.845 298.413 C 229.989 299.176,230.281 299.980,230.495 300.200 C 230.748 300.460,230.785 300.110,230.600 299.200 C 230.444 298.430,230.151 297.626,229.950 297.413 C 229.728 297.177,229.687 297.569,229.845 298.413 M235.000 300.400 C 234.368 301.060,234.052 301.600,234.298 301.600 C 234.544 301.600,235.130 301.060,235.600 300.400 C 236.070 299.740,236.386 299.200,236.302 299.200 C 236.218 299.200,235.632 299.740,235.000 300.400 M230.400 301.351 C 230.400 301.654,230.670 302.126,231.000 302.400 C 231.415 302.744,231.600 302.759,231.600 302.449 C 231.600 302.202,231.426 302.000,231.213 302.000 C 230.999 302.000,230.929 301.730,231.055 301.400 C 231.182 301.070,231.086 300.800,230.843 300.800 C 230.599 300.800,230.400 301.048,230.400 301.351 " stroke="none" fill="#3a7d9a" fill-rule="evenodd"></path></g></svg>