<svg xmlns="http://www.w3.org/2000/svg" viewBox="0 0 148.93 38.02"><defs><style>.a{fill:#003f4e;}.b{fill:#0cf;}</style></defs><title>logo</title><path class="a" d="M127.4,2V38h-9.25L102.75,19V38H92.47V2h9.25l15.41,18.49V2ZM30.82,2V12.3H20.55V38H10.27V12.3H0V2ZM46.23,38H36V2H46.23V38Zm23.12-9.76A8.22,8.22,0,1,1,77.57,20a8.22,8.22,0,0,1-8.22,8.22ZM69.35,1a19,19,0,1,0,19,19,19,19,0,0,0-19-19Z" transform="translate(0 -1)"/><path class="b" d="M140.71,37.31a8.32,8.32,0,0,1-1.13-.08,8.22,8.22,0,1,1,1.13.08Z" transform="translate(0 -1)"/></svg>